<svg class="rich-terminal" viewBox="0 0 994 635.5999999999999" xmlns="http://www.w3.org/2000/svg">
    <!-- Generated with Rich https://www.textualize.io -->
    <style>

    @font-face {
        font-family: "Fira Code";
        src: local("FiraCode-Regular"),
                url("https://cdnjs.cloudflare.com/ajax/libs/firacode/6.2.0/woff2/FiraCode-Regular.woff2") format("woff2"),
                url("https://cdnjs.cloudflare.com/ajax/libs/firacode/6.2.0/woff/FiraCode-Regular.woff") format("woff");
        font-style: normal;
        font-weight: 400;
    }
    @font-face {
        font-family: "Fira Code";
        src: local("FiraCode-Bold"),
                url("https://cdnjs.cloudflare.com/ajax/libs/firacode/6.2.0/woff2/FiraCode-Bold.woff2") format("woff2"),
                url("https://cdnjs.cloudflare.com/ajax/libs/firacode/6.2.0/woff/FiraCode-Bold.woff") format("woff");
        font-style: bold;
        font-weight: 700;
    }

    .terminal-756021239-matrix {
        font-family: Fira Code, monospace;
        font-size: 20px;
        line-height: 24.4px;
        font-variant-east-asian: full-width;
    }

    .terminal-756021239-title {
        font-size: 18px;
        font-weight: bold;
        font-family: arial;
    }

    .terminal-756021239-r1 { fill: #b0b0b0 }
.terminal-756021239-r2 { fill: #c5c8c6 }
.terminal-756021239-r3 { fill: #1f1f1f }
.terminal-756021239-r4 { fill: #d0d0d0 }
.terminal-756021239-r5 { fill: #d1d1d1 }
.terminal-756021239-r6 { fill: #858585 }
.terminal-756021239-r7 { fill: #a6a6a6 }
.terminal-756021239-r8 { fill: #3a3a3a }
.terminal-756021239-r9 { fill: #e0e0e0 }
.terminal-756021239-r10 { fill: #151515 }
.terminal-756021239-r11 { fill: #1f1f1f;font-weight: bold }
.terminal-756021239-r12 { fill: #4e4e4e }
    </style>

    <defs>
    <clipPath id="terminal-756021239-clip-terminal">
      <rect x="0" y="0" width="975.0" height="584.5999999999999" />
    </clipPath>
    <clipPath id="terminal-756021239-line-0">
    <rect x="0" y="1.5" width="976" height="24.65"/>
            </clipPath>
<clipPath id="terminal-756021239-line-1">
    <rect x="0" y="25.9" width="976" height="24.65"/>
            </clipPath>
<clipPath id="terminal-756021239-line-2">
    <rect x="0" y="50.3" width="976" height="24.65"/>
            </clipPath>
<clipPath id="terminal-756021239-line-3">
    <rect x="0" y="74.7" width="976" height="24.65"/>
            </clipPath>
<clipPath id="terminal-756021239-line-4">
    <rect x="0" y="99.1" width="976" height="24.65"/>
            </clipPath>
<clipPath id="terminal-756021239-line-5">
    <rect x="0" y="123.5" width="976" height="24.65"/>
            </clipPath>
<clipPath id="terminal-756021239-line-6">
    <rect x="0" y="147.9" width="976" height="24.65"/>
            </clipPath>
<clipPath id="terminal-756021239-line-7">
    <rect x="0" y="172.3" width="976" height="24.65"/>
            </clipPath>
<clipPath id="terminal-756021239-line-8">
    <rect x="0" y="196.7" width="976" height="24.65"/>
            </clipPath>
<clipPath id="terminal-756021239-line-9">
    <rect x="0" y="221.1" width="976" height="24.65"/>
            </clipPath>
<clipPath id="terminal-756021239-line-10">
    <rect x="0" y="245.5" width="976" height="24.65"/>
            </clipPath>
<clipPath id="terminal-756021239-line-11">
    <rect x="0" y="269.9" width="976" height="24.65"/>
            </clipPath>
<clipPath id="terminal-756021239-line-12">
    <rect x="0" y="294.3" width="976" height="24.65"/>
            </clipPath>
<clipPath id="terminal-756021239-line-13">
    <rect x="0" y="318.7" width="976" height="24.65"/>
            </clipPath>
<clipPath id="terminal-756021239-line-14">
    <rect x="0" y="343.1" width="976" height="24.65"/>
            </clipPath>
<clipPath id="terminal-756021239-line-15">
    <rect x="0" y="367.5" width="976" height="24.65"/>
            </clipPath>
<clipPath id="terminal-756021239-line-16">
    <rect x="0" y="391.9" width="976" height="24.65"/>
            </clipPath>
<clipPath id="terminal-756021239-line-17">
    <rect x="0" y="416.3" width="976" height="24.65"/>
            </clipPath>
<clipPath id="terminal-756021239-line-18">
    <rect x="0" y="440.7" width="976" height="24.65"/>
            </clipPath>
<clipPath id="terminal-756021239-line-19">
    <rect x="0" y="465.1" width="976" height="24.65"/>
            </clipPath>
<clipPath id="terminal-756021239-line-20">
    <rect x="0" y="489.5" width="976" height="24.65"/>
            </clipPath>
<clipPath id="terminal-756021239-line-21">
    <rect x="0" y="513.9" width="976" height="24.65"/>
            </clipPath>
<clipPath id="terminal-756021239-line-22">
    <rect x="0" y="538.3" width="976" height="24.65"/>
            </clipPath>
    </defs>

    <rect fill="#292929" stroke="rgba(255,255,255,0.35)" stroke-width="1" x="1" y="1" width="992" height="633.6" rx="8"/><text class="terminal-756021239-title" fill="#c5c8c6" text-anchor="middle" x="496" y="27">tldw&#160;chatbook</text>
            <g transform="translate(26,22)">
            <circle cx="0" cy="0" r="7" fill="#ff5f57"/>
            <circle cx="22" cy="0" r="7" fill="#febc2e"/>
            <circle cx="44" cy="0" r="7" fill="#28c840"/>
            </g>

    <g transform="translate(9, 41)" clip-path="url(#terminal-756021239-clip-terminal)">
    <rect fill="#d0d0d0" x="0" y="1.5" width="12.2" height="24.65" shape-rendering="crispEdges"/><rect fill="#d0d0d0" x="12.2" y="1.5" width="951.6" height="24.65" shape-rendering="crispEdges"/><rect fill="#d0d0d0" x="963.8" y="1.5" width="12.2" height="24.65" shape-rendering="crispEdges"/><rect fill="#d0d0d0" x="0" y="25.9" width="12.2" height="24.65" shape-rendering="crispEdges"/><rect fill="#d0d0d0" x="12.2" y="25.9" width="12.2" height="24.65" shape-rendering="crispEdges"/><rect fill="#d0d0d0" x="24.4" y="25.9" width="305" height="24.65" shape-rendering="crispEdges"/><rect fill="#d0d0d0" x="329.4" y="25.9" width="622.2" height="24.65" shape-rendering="crispEdges"/><rect fill="#d0d0d0" x="951.6" y="25.9" width="12.2" height="24.65" shape-rendering="crispEdges"/><rect fill="#d0d0d0" x="963.8" y="25.9" width="12.2" height="24.65" shape-rendering="crispEdges"/><rect fill="#d0d0d0" x="0" y="50.3" width="12.2" height="24.65" shape-rendering="crispEdges"/><rect fill="#d0d0d0" x="12.2" y="50.3" width="12.2" height="24.65" shape-rendering="crispEdges"/><rect fill="#d0d0d0" x="24.4" y="50.3" width="439.2" height="24.65" shape-rendering="crispEdges"/><rect fill="#d0d0d0" x="463.6" y="50.3" width="488" height="24.65" shape-rendering="crispEdges"/><rect fill="#d0d0d0" x="951.6" y="50.3" width="12.2" height="24.65" shape-rendering="crispEdges"/><rect fill="#d0d0d0" x="963.8" y="50.3" width="12.2" height="24.65" shape-rendering="crispEdges"/><rect fill="#d0d0d0" x="0" y="74.7" width="12.2" height="24.65" shape-rendering="crispEdges"/><rect fill="#d0d0d0" x="12.2" y="74.7" width="12.2" height="24.65" shape-rendering="crispEdges"/><rect fill="#d1d1d1" x="24.4" y="74.7" width="12.2" height="24.65" shape-rendering="crispEdges"/><rect fill="#d8d8d8" x="36.6" y="74.7" width="902.8" height="24.65" shape-rendering="crispEdges"/><rect fill="#d0d0d0" x="939.4" y="74.7" width="12.2" height="24.65" shape-rendering="crispEdges"/><rect fill="#d0d0d0" x="951.6" y="74.7" width="12.2" height="24.65" shape-rendering="crispEdges"/><rect fill="#d0d0d0" x="963.8" y="74.7" width="12.2" height="24.65" shape-rendering="crispEdges"/><rect fill="#d0d0d0" x="0" y="99.1" width="12.2" height="24.65" shape-rendering="crispEdges"/><rect fill="#d0d0d0" x="12.2" y="99.1" width="12.2" height="24.65" shape-rendering="crispEdges"/><rect fill="#d1d1d1" x="24.4" y="99.1" width="12.2" height="24.65" shape-rendering="crispEdges"/><rect fill="#d8d8d8" x="36.6" y="99.1" width="24.4" height="24.65" shape-rendering="crispEdges"/><rect fill="#d8d8d8" x="61" y="99.1" width="329.4" height="24.65" shape-rendering="crispEdges"/><rect fill="#d8d8d8" x="390.4" y="99.1" width="524.6" height="24.65" shape-rendering="crispEdges"/><rect fill="#d8d8d8" x="915" y="99.1" width="24.4" height="24.65" shape-rendering="crispEdges"/><rect fill="#d0d0d0" x="939.4" y="99.1" width="12.2" height="24.65" shape-rendering="crispEdges"/><rect fill="#d0d0d0" x="951.6" y="99.1" width="12.2" height="24.65" shape-rendering="crispEdges"/><rect fill="#d0d0d0" x="963.8" y="99.1" width="12.2" height="24.65" shape-rendering="crispEdges"/><rect fill="#d0d0d0" x="0" y="123.5" width="12.2" height="24.65" shape-rendering="crispEdges"/><rect fill="#d0d0d0" x="12.2" y="123.5" width="12.2" height="24.65" shape-rendering="crispEdges"/><rect fill="#d1d1d1" x="24.4" y="123.5" width="12.2" height="24.65" shape-rendering="crispEdges"/><rect fill="#d8d8d8" x="36.6" y="123.5" width="902.8" height="24.65" shape-rendering="crispEdges"/><rect fill="#d0d0d0" x="939.4" y="123.5" width="12.2" height="24.65" shape-rendering="crispEdges"/><rect fill="#d0d0d0" x="951.6" y="123.5" width="12.2" height="24.65" shape-rendering="crispEdges"/><rect fill="#d0d0d0" x="963.8" y="123.5" width="12.2" height="24.65" shape-rendering="crispEdges"/><rect fill="#d0d0d0" x="0" y="147.9" width="12.2" height="24.65" shape-rendering="crispEdges"/><rect fill="#d0d0d0" x="12.2" y="147.9" width="12.2" height="24.65" shape-rendering="crispEdges"/><rect fill="#d8d8d8" x="24.4" y="147.9" width="12.2" height="24.65" shape-rendering="crispEdges"/><rect fill="#d0d0d0" x="36.6" y="147.9" width="12.2" height="24.65" shape-rendering="crispEdges"/><rect fill="#d8d8d8" x="48.8" y="147.9" width="12.2" height="24.65" shape-rendering="crispEdges"/><rect fill="#d8d8d8" x="61" y="147.9" width="195.2" height="24.65" shape-rendering="crispEdges"/><rect fill="#d8d8d8" x="256.2" y="147.9" width="695.4" height="24.65" shape-rendering="crispEdges"/><rect fill="#d0d0d0" x="951.6" y="147.9" width="12.2" height="24.65" shape-rendering="crispEdges"/><rect fill="#d0d0d0" x="963.8" y="147.9" width="12.2" height="24.65" shape-rendering="crispEdges"/><rect fill="#d0d0d0" x="0" y="172.3" width="12.2" height="24.65" shape-rendering="crispEdges"/><rect fill="#d0d0d0" x="12.2" y="172.3" width="12.2" height="24.65" shape-rendering="crispEdges"/><rect fill="#d8d8d8" x="24.4" y="172.3" width="12.2" height="24.65" shape-rendering="crispEdges"/><rect fill="#d0d0d0" x="36.6" y="172.3" width="12.2" height="24.65" shape-rendering="crispEdges"/><rect fill="#d8d8d8" x="48.8" y="172.3" width="12.2" height="24.65" shape-rendering="crispEdges"/><rect fill="#d8d8d8" x="61" y="172.3" width="305" height="24.65" shape-rendering="crispEdges"/><rect fill="#d8d8d8" x="366" y="172.3" width="585.6" height="24.65" shape-rendering="crispEdges"/><rect fill="#d0d0d0" x="951.6" y="172.3" width="12.2" height="24.65" shape-rendering="crispEdges"/><rect fill="#d0d0d0" x="963.8" y="172.3" width="12.2" height="24.65" shape-rendering="crispEdges"/><rect fill="#d0d0d0" x="0" y="196.7" width="12.2" height="24.65" shape-rendering="crispEdges"/><rect fill="#d0d0d0" x="12.2" y="196.7" width="12.2" height="24.65" shape-rendering="crispEdges"/><rect fill="#c3c3c3" x="24.4" y="196.7" width="927.2" height="24.65" shape-rendering="crispEdges"/><rect fill="#d0d0d0" x="951.6" y="196.7" width="12.2" height="24.65" shape-rendering="crispEdges"/><rect fill="#d0d0d0" x="963.8" y="196.7" width="12.2" height="24.65" shape-rendering="crispEdges"/><rect fill="#d0d0d0" x="0" y="221.1" width="12.2" height="24.65" shape-rendering="crispEdges"/><rect fill="#d0d0d0" x="12.2" y="221.1" width="12.2" height="24.65" shape-rendering="crispEdges"/><rect fill="#c3c3c3" x="24.4" y="221.1" width="927.2" height="24.65" shape-rendering="crispEdges"/><rect fill="#d0d0d0" x="951.6" y="221.1" width="12.2" height="24.65" shape-rendering="crispEdges"/><rect fill="#d0d0d0" x="963.8" y="221.1" width="12.2" height="24.65" shape-rendering="crispEdges"/><rect fill="#d0d0d0" x="0" y="245.5" width="12.2" height="24.65" shape-rendering="crispEdges"/><rect fill="#d0d0d0" x="12.2" y="245.5" width="12.2" height="24.65" shape-rendering="crispEdges"/><rect fill="#c3c3c3" x="24.4" y="245.5" width="927.2" height="24.65" shape-rendering="crispEdges"/><rect fill="#d0d0d0" x="951.6" y="245.5" width="12.2" height="24.65" shape-rendering="crispEdges"/><rect fill="#d0d0d0" x="963.8" y="245.5" width="12.2" height="24.65" shape-rendering="crispEdges"/><rect fill="#d0d0d0" x="0" y="269.9" width="12.2" height="24.65" shape-rendering="crispEdges"/><rect fill="#d0d0d0" x="12.2" y="269.9" width="12.2" height="24.65" shape-rendering="crispEdges"/><rect fill="#c3c3c3" x="24.4" y="269.9" width="927.2" height="24.65" shape-rendering="crispEdges"/><rect fill="#d0d0d0" x="951.6" y="269.9" width="12.2" height="24.65" shape-rendering="crispEdges"/><rect fill="#d0d0d0" x="963.8" y="269.9" width="12.2" height="24.65" shape-rendering="crispEdges"/><rect fill="#d0d0d0" x="0" y="294.3" width="12.2" height="24.65" shape-rendering="crispEdges"/><rect fill="#d0d0d0" x="12.2" y="294.3" width="12.2" height="24.65" shape-rendering="crispEdges"/><rect fill="#a2a2a2" x="24.4" y="294.3" width="12.2" height="24.65" shape-rendering="crispEdges"/><rect fill="#a2a2a2" x="36.6" y="294.3" width="902.8" height="24.65" shape-rendering="crispEdges"/><rect fill="#a2a2a2" x="939.4" y="294.3" width="12.2" height="24.65" shape-rendering="crispEdges"/><rect fill="#d0d0d0" x="951.6" y="294.3" width="12.2" height="24.65" shape-rendering="crispEdges"/><rect fill="#d0d0d0" x="963.8" y="294.3" width="12.2" height="24.65" shape-rendering="crispEdges"/><rect fill="#d0d0d0" x="0" y="318.7" width="12.2" height="24.65" shape-rendering="crispEdges"/><rect fill="#d0d0d0" x="12.2" y="318.7" width="12.2" height="24.65" shape-rendering="crispEdges"/><rect fill="#a2a2a2" x="24.4" y="318.7" width="12.2" height="24.65" shape-rendering="crispEdges"/><rect fill="#a2a2a2" x="36.6" y="318.7" width="24.4" height="24.65" shape-rendering="crispEdges"/><rect fill="#808080" x="61" y="318.7" width="170.8" height="24.65" shape-rendering="crispEdges"/><rect fill="#1f1f1f" x="231.8" y="318.7" width="12.2" height="24.65" shape-rendering="crispEdges"/><rect fill="#a2a2a2" x="244" y="318.7" width="671" height="24.65" shape-rendering="crispEdges"/><rect fill="#a2a2a2" x="915" y="318.7" width="24.4" height="24.65" shape-rendering="crispEdges"/><rect fill="#a2a2a2" x="939.4" y="318.7" width="12.2" height="24.65" shape-rendering="crispEdges"/><rect fill="#d0d0d0" x="951.6" y="318.7" width="12.2" height="24.65" shape-rendering="crispEdges"/><rect fill="#d0d0d0" x="963.8" y="318.7" width="12.2" height="24.65" shape-rendering="crispEdges"/><rect fill="#d0d0d0" x="0" y="343.1" width="12.2" height="24.65" shape-rendering="crispEdges"/><rect fill="#d0d0d0" x="12.2" y="343.1" width="12.2" height="24.65" shape-rendering="crispEdges"/><rect fill="#a2a2a2" x="24.4" y="343.1" width="12.2" height="24.65" shape-rendering="crispEdges"/><rect fill="#a2a2a2" x="36.6" y="343.1" width="902.8" height="24.65" shape-rendering="crispEdges"/><rect fill="#a2a2a2" x="939.4" y="343.1" width="12.2" height="24.65" shape-rendering="crispEdges"/><rect fill="#d0d0d0" x="951.6" y="343.1" width="12.2" height="24.65" shape-rendering="crispEdges"/><rect fill="#d0d0d0" x="963.8" y="343.1" width="12.2" height="24.65" shape-rendering="crispEdges"/><rect fill="#d0d0d0" x="0" y="367.5" width="12.2" height="24.65" shape-rendering="crispEdges"/><rect fill="#d0d0d0" x="12.2" y="367.5" width="12.2" height="24.65" shape-rendering="crispEdges"/><rect fill="#d0d0d0" x="24.4" y="367.5" width="463.6" height="24.65" shape-rendering="crispEdges"/><rect fill="#d0d0d0" x="488" y="367.5" width="463.6" height="24.65" shape-rendering="crispEdges"/><rect fill="#d0d0d0" x="951.6" y="367.5" width="12.2" height="24.65" shape-rendering="crispEdges"/><rect fill="#d0d0d0" x="963.8" y="367.5" width="12.2" height="24.65" shape-rendering="crispEdges"/><rect fill="#d0d0d0" x="0" y="391.9" width="12.2" height="24.65" shape-rendering="crispEdges"/><rect fill="#d0d0d0" x="12.2" y="391.9" width="12.2" height="24.65" shape-rendering="crispEdges"/><rect fill="#d8d8d8" x="24.4" y="391.9" width="195.2" height="24.65" shape-rendering="crispEdges"/><rect fill="#d0d0d0" x="219.6" y="391.9" width="12.2" height="24.65" shape-rendering="crispEdges"/><rect fill="#c3c3c3" x="231.8" y="391.9" width="207.4" height="24.65" shape-rendering="crispEdges"/><rect fill="#d0d0d0" x="439.2" y="391.9" width="512.4" height="24.65" shape-rendering="crispEdges"/><rect fill="#d0d0d0" x="951.6" y="391.9" width="12.2" height="24.65" shape-rendering="crispEdges"/><rect fill="#d0d0d0" x="963.8" y="391.9" width="12.2" height="24.65" shape-rendering="crispEdges"/><rect fill="#d0d0d0" x="0" y="416.3" width="12.2" height="24.65" shape-rendering="crispEdges"/><rect fill="#d0d0d0" x="12.2" y="416.3" width="12.2" height="24.65" shape-rendering="crispEdges"/><rect fill="#d8d8d8" x="24.4" y="416.3" width="195.2" height="24.65" shape-rendering="crispEdges"/><rect fill="#d0d0d0" x="219.6" y="416.3" width="12.2" height="24.65" shape-rendering="crispEdges"/><rect fill="#c3c3c3" x="231.8" y="416.3" width="207.4" height="24.65" shape-rendering="crispEdges"/><rect fill="#d0d0d0" x="439.2" y="416.3" width="512.4" height="24.65" shape-rendering="crispEdges"/><rect fill="#d0d0d0" x="951.6" y="416.3" width="12.2" height="24.65" shape-rendering="crispEdges"/><rect fill="#d0d0d0" x="963.8" y="416.3" width="12.2" height="24.65" shape-rendering="crispEdges"/><rect fill="#d0d0d0" x="0" y="440.7" width="12.2" height="24.65" shape-rendering="crispEdges"/><rect fill="#d0d0d0" x="12.2" y="440.7" width="12.2" height="24.65" shape-rendering="crispEdges"/><rect fill="#d8d8d8" x="24.4" y="440.7" width="195.2" height="24.65" shape-rendering="crispEdges"/><rect fill="#d0d0d0" x="219.6" y="440.7" width="12.2" height="24.65" shape-rendering="crispEdges"/><rect fill="#c3c3c3" x="231.8" y="440.7" width="207.4" height="24.65" shape-rendering="crispEdges"/><rect fill="#d0d0d0" x="439.2" y="440.7" width="512.4" height="24.65" shape-rendering="crispEdges"/><rect fill="#d0d0d0" x="951.6" y="440.7" width="12.2" height="24.65" shape-rendering="crispEdges"/><rect fill="#d0d0d0" x="963.8" y="440.7" width="12.2" height="24.65" shape-rendering="crispEdges"/><rect fill="#d0d0d0" x="0" y="465.1" width="12.2" height="24.65" shape-rendering="crispEdges"/><rect fill="#d0d0d0" x="12.2" y="465.1" width="12.2" height="24.65" shape-rendering="crispEdges"/><rect fill="#d0d0d0" x="24.4" y="465.1" width="451.4" height="24.65" shape-rendering="crispEdges"/><rect fill="#d0d0d0" x="475.8" y="465.1" width="475.8" height="24.65" shape-rendering="crispEdges"/><rect fill="#d0d0d0" x="951.6" y="465.1" width="12.2" height="24.65" shape-rendering="crispEdges"/><rect fill="#d0d0d0" x="963.8" y="465.1" width="12.2" height="24.65" shape-rendering="crispEdges"/><rect fill="#d0d0d0" x="0" y="489.5" width="12.2" height="24.65" shape-rendering="crispEdges"/><rect fill="#d0d0d0" x="12.2" y="489.5" width="12.2" height="24.65" shape-rendering="crispEdges"/><rect fill="#d8d8d8" x="24.4" y="489.5" width="97.6" height="24.65" shape-rendering="crispEdges"/><rect fill="#d0d0d0" x="122" y="489.5" width="12.2" height="24.65" shape-rendering="crispEdges"/><rect fill="#d8d8d8" x="134.2" y="489.5" width="97.6" height="24.65" shape-rendering="crispEdges"/><rect fill="#d0d0d0" x="231.8" y="489.5" width="719.8" height="24.65" shape-rendering="crispEdges"/><rect fill="#d0d0d0" x="951.6" y="489.5" width="12.2" height="24.65" shape-rendering="crispEdges"/><rect fill="#d0d0d0" x="963.8" y="489.5" width="12.2" height="24.65" shape-rendering="crispEdges"/><rect fill="#d0d0d0" x="0" y="513.9" width="12.2" height="24.65" shape-rendering="crispEdges"/><rect fill="#d0d0d0" x="12.2" y="513.9" width="12.2" height="24.65" shape-rendering="crispEdges"/><rect fill="#d8d8d8" x="24.4" y="513.9" width="12.2" height="24.65" shape-rendering="crispEdges"/><rect fill="#d8d8d8" x="36.6" y="513.9" width="73.2" height="24.65" shape-rendering="crispEdges"/><rect fill="#d8d8d8" x="109.8" y="513.9" width="12.2" height="24.65" shape-rendering="crispEdges"/><rect fill="#d0d0d0" x="122" y="513.9" width="12.2" height="24.65" shape-rendering="crispEdges"/><rect fill="#d8d8d8" x="134.2" y="513.9" width="97.6" height="24.65" shape-rendering="crispEdges"/><rect fill="#d0d0d0" x="231.8" y="513.9" width="719.8" height="24.65" shape-rendering="crispEdges"/><rect fill="#d0d0d0" x="951.6" y="513.9" width="12.2" height="24.65" shape-rendering="crispEdges"/><rect fill="#d0d0d0" x="963.8" y="513.9" width="12.2" height="24.65" shape-rendering="crispEdges"/><rect fill="#d0d0d0" x="0" y="538.3" width="12.2" height="24.65" shape-rendering="crispEdges"/><rect fill="#d0d0d0" x="12.2" y="538.3" width="12.2" height="24.65" shape-rendering="crispEdges"/><rect fill="#d8d8d8" x="24.4" y="538.3" width="97.6" height="24.65" shape-rendering="crispEdges"/><rect fill="#d0d0d0" x="122" y="538.3" width="12.2" height="24.65" shape-rendering="crispEdges"/><rect fill="#d8d8d8" x="134.2" y="538.3" width="97.6" height="24.65" shape-rendering="crispEdges"/><rect fill="#d0d0d0" x="231.8" y="538.3" width="719.8" height="24.65" shape-rendering="crispEdges"/><rect fill="#d0d0d0" x="951.6" y="538.3" width="12.2" height="24.65" shape-rendering="crispEdges"/><rect fill="#d0d0d0" x="963.8" y="538.3" width="12.2" height="24.65" shape-rendering="crispEdges"/><rect fill="#d0d0d0" x="0" y="562.7" width="12.2" height="24.65" shape-rendering="crispEdges"/><rect fill="#d0d0d0" x="12.2" y="562.7" width="951.6" height="24.65" shape-rendering="crispEdges"/><rect fill="#d0d0d0" x="963.8" y="562.7" width="12.2" height="24.65" shape-rendering="crispEdges"/>
    <g class="terminal-756021239-matrix">
    <text class="terminal-756021239-r1" x="0" y="20" textLength="12.2" clip-path="url(#terminal-756021239-line-0)">╭</text><text class="terminal-756021239-r1" x="12.2" y="20" textLength="951.6" clip-path="url(#terminal-756021239-line-0)">──────────────────────────────────────────────────────────────────────────────</text><text class="terminal-756021239-r1" x="963.8" y="20" textLength="12.2" clip-path="url(#terminal-756021239-line-0)">╮</text><text class="terminal-756021239-r2" x="976" y="20" textLength="12.2" clip-path="url(#terminal-756021239-line-0)">
</text><text class="terminal-756021239-r1" x="0" y="44.4" textLength="12.2" clip-path="url(#terminal-756021239-line-1)">│</text><text class="terminal-756021239-r3" x="24.4" y="44.4" textLength="305" clip-path="url(#terminal-756021239-line-1)">Manage&#160;Prompt&#160;collections</text><text class="terminal-756021239-r1" x="963.8" y="44.4" textLength="12.2" clip-path="url(#terminal-756021239-line-1)">│</text><text class="terminal-756021239-r2" x="976" y="44.4" textLength="12.2" clip-path="url(#terminal-756021239-line-1)">
</text><text class="terminal-756021239-r1" x="0" y="68.8" textLength="12.2" clip-path="url(#terminal-756021239-line-2)">│</text><text class="terminal-756021239-r3" x="24.4" y="68.8" textLength="439.2" clip-path="url(#terminal-756021239-line-2)">Local&#160;only&#160;·&#160;Prompt&#160;Save&#160;is&#160;separate</text><text class="terminal-756021239-r1" x="963.8" y="68.8" textLength="12.2" clip-path="url(#terminal-756021239-line-2)">│</text><text class="terminal-756021239-r2" x="976" y="68.8" textLength="12.2" clip-path="url(#terminal-756021239-line-2)">
</text><text class="terminal-756021239-r1" x="0" y="93.2" textLength="12.2" clip-path="url(#terminal-756021239-line-3)">│</text><text class="terminal-756021239-r4" x="24.4" y="93.2" textLength="12.2" clip-path="url(#terminal-756021239-line-3)">▊</text><text class="terminal-756021239-r5" x="36.6" y="93.2" textLength="902.8" clip-path="url(#terminal-756021239-line-3)">▔▔▔▔▔▔▔▔▔▔▔▔▔▔▔▔▔▔▔▔▔▔▔▔▔▔▔▔▔▔▔▔▔▔▔▔▔▔▔▔▔▔▔▔▔▔▔▔▔▔▔▔▔▔▔▔▔▔▔▔▔▔▔▔▔▔▔▔▔▔▔▔▔▔</text><text class="terminal-756021239-r5" x="939.4" y="93.2" textLength="12.2" clip-path="url(#terminal-756021239-line-3)">▎</text><text class="terminal-756021239-r1" x="963.8" y="93.2" textLength="12.2" clip-path="url(#terminal-756021239-line-3)">│</text><text class="terminal-756021239-r2" x="976" y="93.2" textLength="12.2" clip-path="url(#terminal-756021239-line-3)">
</text><text class="terminal-756021239-r1" x="0" y="117.6" textLength="12.2" clip-path="url(#terminal-756021239-line-4)">│</text><text class="terminal-756021239-r4" x="24.4" y="117.6" textLength="12.2" clip-path="url(#terminal-756021239-line-4)">▊</text><text class="terminal-756021239-r6" x="61" y="117.6" textLength="329.4" clip-path="url(#terminal-756021239-line-4)">Search&#160;collections…&#160;(Enter)</text><text class="terminal-756021239-r5" x="939.4" y="117.6" textLength="12.2" clip-path="url(#terminal-756021239-line-4)">▎</text><text class="terminal-756021239-r1" x="963.8" y="117.6" textLength="12.2" clip-path="url(#terminal-756021239-line-4)">│</text><text class="terminal-756021239-r2" x="976" y="117.6" textLength="12.2" clip-path="url(#terminal-756021239-line-4)">
</text><text class="terminal-756021239-r1" x="0" y="142" textLength="12.2" clip-path="url(#terminal-756021239-line-5)">│</text><text class="terminal-756021239-r4" x="24.4" y="142" textLength="12.2" clip-path="url(#terminal-756021239-line-5)">▊</text><text class="terminal-756021239-r5" x="36.6" y="142" textLength="902.8" clip-path="url(#terminal-756021239-line-5)">▁▁▁▁▁▁▁▁▁▁▁▁▁▁▁▁▁▁▁▁▁▁▁▁▁▁▁▁▁▁▁▁▁▁▁▁▁▁▁▁▁▁▁▁▁▁▁▁▁▁▁▁▁▁▁▁▁▁▁▁▁▁▁▁▁▁▁▁▁▁▁▁▁▁</text><text class="terminal-756021239-r5" x="939.4" y="142" textLength="12.2" clip-path="url(#terminal-756021239-line-5)">▎</text><text class="terminal-756021239-r1" x="963.8" y="142" textLength="12.2" clip-path="url(#terminal-756021239-line-5)">│</text><text class="terminal-756021239-r2" x="976" y="142" textLength="12.2" clip-path="url(#terminal-756021239-line-5)">
</text><text class="terminal-756021239-r1" x="0" y="166.4" textLength="12.2" clip-path="url(#terminal-756021239-line-6)">│</text><text class="terminal-756021239-r4" x="24.4" y="166.4" textLength="12.2" clip-path="url(#terminal-756021239-line-6)">▐</text><text class="terminal-756021239-r7" x="36.6" y="166.4" textLength="12.2" clip-path="url(#terminal-756021239-line-6)">X</text><text class="terminal-756021239-r4" x="48.8" y="166.4" textLength="12.2" clip-path="url(#terminal-756021239-line-6)">▌</text><text class="terminal-756021239-r3" x="61" y="166.4" textLength="195.2" clip-path="url(#terminal-756021239-line-6)">&#160;[bold]&#160;café&#160;80&#160;</text><text class="terminal-756021239-r1" x="963.8" y="166.4" textLength="12.2" clip-path="url(#terminal-756021239-line-6)">│</text><text class="terminal-756021239-r2" x="976" y="166.4" textLength="12.2" clip-path="url(#terminal-756021239-line-6)">
</text><text class="terminal-756021239-r1" x="0" y="190.8" textLength="12.2" clip-path="url(#terminal-756021239-line-7)">│</text><text class="terminal-756021239-r4" x="24.4" y="190.8" textLength="12.2" clip-path="url(#terminal-756021239-line-7)">▐</text><text class="terminal-756021239-r7" x="36.6" y="190.8" textLength="12.2" clip-path="url(#terminal-756021239-line-7)">X</text><text class="terminal-756021239-r4" x="48.8" y="190.8" textLength="12.2" clip-path="url(#terminal-756021239-line-7)">▌</text><text class="terminal-756021239-r3" x="61" y="190.8" textLength="305" clip-path="url(#terminal-756021239-line-7)">&#160;[bold]&#160;café&#160;renamed&#160;170&#160;</text><text class="terminal-756021239-r1" x="963.8" y="190.8" textLength="12.2" clip-path="url(#terminal-756021239-line-7)">│</text><text class="terminal-756021239-r2" x="976" y="190.8" textLength="12.2" clip-path="url(#terminal-756021239-line-7)">
</text><text class="terminal-756021239-r1" x="0" y="215.2" textLength="12.2" clip-path="url(#terminal-756021239-line-8)">│</text><text class="terminal-756021239-r1" x="963.8" y="215.2" textLength="12.2" clip-path="url(#terminal-756021239-line-8)">│</text><text class="terminal-756021239-r2" x="976" y="215.2" textLength="12.2" clip-path="url(#terminal-756021239-line-8)">
</text><text class="terminal-756021239-r1" x="0" y="239.6" textLength="12.2" clip-path="url(#terminal-756021239-line-9)">│</text><text class="terminal-756021239-r1" x="963.8" y="239.6" textLength="12.2" clip-path="url(#terminal-756021239-line-9)">│</text><text class="terminal-756021239-r2" x="976" y="239.6" textLength="12.2" clip-path="url(#terminal-756021239-line-9)">
</text><text class="terminal-756021239-r1" x="0" y="264" textLength="12.2" clip-path="url(#terminal-756021239-line-10)">│</text><text class="terminal-756021239-r1" x="963.8" y="264" textLength="12.2" clip-path="url(#terminal-756021239-line-10)">│</text><text class="terminal-756021239-r2" x="976" y="264" textLength="12.2" clip-path="url(#terminal-756021239-line-10)">
</text><text class="terminal-756021239-r1" x="0" y="288.4" textLength="12.2" clip-path="url(#terminal-756021239-line-11)">│</text><text class="terminal-756021239-r1" x="963.8" y="288.4" textLength="12.2" clip-path="url(#terminal-756021239-line-11)">│</text><text class="terminal-756021239-r2" x="976" y="288.4" textLength="12.2" clip-path="url(#terminal-756021239-line-11)">
</text><text class="terminal-756021239-r1" x="0" y="312.8" textLength="12.2" clip-path="url(#terminal-756021239-line-12)">│</text><text class="terminal-756021239-r8" x="24.4" y="312.8" textLength="12.2" clip-path="url(#terminal-756021239-line-12)">┌</text><text class="terminal-756021239-r8" x="36.6" y="312.8" textLength="902.8" clip-path="url(#terminal-756021239-line-12)">──────────────────────────────────────────────────────────────────────────</text><text class="terminal-756021239-r8" x="939.4" y="312.8" textLength="12.2" clip-path="url(#terminal-756021239-line-12)">┐</text><text class="terminal-756021239-r1" x="963.8" y="312.8" textLength="12.2" clip-path="url(#terminal-756021239-line-12)">│</text><text class="terminal-756021239-r2" x="976" y="312.8" textLength="12.2" clip-path="url(#terminal-756021239-line-12)">
</text><text class="terminal-756021239-r1" x="0" y="337.2" textLength="12.2" clip-path="url(#terminal-756021239-line-13)">│</text><text class="terminal-756021239-r8" x="24.4" y="337.2" textLength="12.2" clip-path="url(#terminal-756021239-line-13)">│</text><text class="terminal-756021239-r3" x="61" y="337.2" textLength="170.8" clip-path="url(#terminal-756021239-line-13)">[bold]&#160;café&#160;80</text><text class="terminal-756021239-r8" x="939.4" y="337.2" textLength="12.2" clip-path="url(#terminal-756021239-line-13)">│</text><text class="terminal-756021239-r1" x="963.8" y="337.2" textLength="12.2" clip-path="url(#terminal-756021239-line-13)">│</text><text class="terminal-756021239-r2" x="976" y="337.2" textLength="12.2" clip-path="url(#terminal-756021239-line-13)">
</text><text class="terminal-756021239-r1" x="0" y="361.6" textLength="12.2" clip-path="url(#terminal-756021239-line-14)">│</text><text class="terminal-756021239-r8" x="24.4" y="361.6" textLength="12.2" clip-path="url(#terminal-756021239-line-14)">└</text><text class="terminal-756021239-r8" x="36.6" y="361.6" textLength="902.8" clip-path="url(#terminal-756021239-line-14)">──────────────────────────────────────────────────────────────────────────</text><text class="terminal-756021239-r8" x="939.4" y="361.6" textLength="12.2" clip-path="url(#terminal-756021239-line-14)">┘</text><text class="terminal-756021239-r1" x="963.8" y="361.6" textLength="12.2" clip-path="url(#terminal-756021239-line-14)">│</text><text class="terminal-756021239-r2" x="976" y="361.6" textLength="12.2" clip-path="url(#terminal-756021239-line-14)">
</text><text class="terminal-756021239-r1" x="0" y="386" textLength="12.2" clip-path="url(#terminal-756021239-line-15)">│</text><text class="terminal-756021239-r3" x="24.4" y="386" textLength="463.6" clip-path="url(#terminal-756021239-line-15)">Rename&#160;target:&#160;choose&#160;a&#160;collection&#160;row</text><text class="terminal-756021239-r1" x="963.8" y="386" textLength="12.2" clip-path="url(#terminal-756021239-line-15)">│</text><text class="terminal-756021239-r2" x="976" y="386" textLength="12.2" clip-path="url(#terminal-756021239-line-15)">
</text><text class="terminal-756021239-r1" x="0" y="410.4" textLength="12.2" clip-path="url(#terminal-756021239-line-16)">│</text><text class="terminal-756021239-r1" x="963.8" y="410.4" textLength="12.2" clip-path="url(#terminal-756021239-line-16)">│</text><text class="terminal-756021239-r2" x="976" y="410.4" textLength="12.2" clip-path="url(#terminal-756021239-line-16)">
</text><text class="terminal-756021239-r1" x="0" y="434.8" textLength="12.2" clip-path="url(#terminal-756021239-line-17)">│</text><text class="terminal-756021239-r11" x="24.4" y="434.8" textLength="195.2" clip-path="url(#terminal-756021239-line-17)">&#160;New&#160;collection&#160;</text><text class="terminal-756021239-r12" x="231.8" y="434.8" textLength="207.4" clip-path="url(#terminal-756021239-line-17)">&#160;Rename&#160;selected&#160;</text><text class="terminal-756021239-r1" x="963.8" y="434.8" textLength="12.2" clip-path="url(#terminal-756021239-line-17)">│</text><text class="terminal-756021239-r2" x="976" y="434.8" textLength="12.2" clip-path="url(#terminal-756021239-line-17)">
</text><text class="terminal-756021239-r1" x="0" y="459.2" textLength="12.2" clip-path="url(#terminal-756021239-line-18)">│</text><text class="terminal-756021239-r1" x="963.8" y="459.2" textLength="12.2" clip-path="url(#terminal-756021239-line-18)">│</text><text class="terminal-756021239-r2" x="976" y="459.2" textLength="12.2" clip-path="url(#terminal-756021239-line-18)">
</text><text class="terminal-756021239-r1" x="0" y="483.6" textLength="12.2" clip-path="url(#terminal-756021239-line-19)">│</text><text class="terminal-756021239-r3" x="24.4" y="483.6" textLength="451.4" clip-path="url(#terminal-756021239-line-19)">Name&#160;already&#160;exists&#160;—&#160;choose&#160;another.</text><text class="terminal-756021239-r1" x="963.8" y="483.6" textLength="12.2" clip-path="url(#terminal-756021239-line-19)">│</text><text class="terminal-756021239-r2" x="976" y="483.6" textLength="12.2" clip-path="url(#terminal-756021239-line-19)">
</text><text class="terminal-756021239-r1" x="0" y="508" textLength="12.2" clip-path="url(#terminal-756021239-line-20)">│</text><text class="terminal-756021239-r1" x="963.8" y="508" textLength="12.2" clip-path="url(#terminal-756021239-line-20)">│</text><text class="terminal-756021239-r2" x="976" y="508" textLength="12.2" clip-path="url(#terminal-756021239-line-20)">
</text><text class="terminal-756021239-r1" x="0" y="532.4" textLength="12.2" clip-path="url(#terminal-756021239-line-21)">│</text><text class="terminal-756021239-r11" x="36.6" y="532.4" textLength="73.2" clip-path="url(#terminal-756021239-line-21)">&#160;Done&#160;</text><text class="terminal-756021239-r11" x="134.2" y="532.4" textLength="97.6" clip-path="url(#terminal-756021239-line-21)">&#160;Cancel&#160;</text><text class="terminal-756021239-r1" x="963.8" y="532.4" textLength="12.2" clip-path="url(#terminal-756021239-line-21)">│</text><text class="terminal-756021239-r2" x="976" y="532.4" textLength="12.2" clip-path="url(#terminal-756021239-line-21)">
</text><text class="terminal-756021239-r1" x="0" y="556.8" textLength="12.2" clip-path="url(#terminal-756021239-line-22)">│</text><text class="terminal-756021239-r1" x="963.8" y="556.8" textLength="12.2" clip-path="url(#terminal-756021239-line-22)">│</text><text class="terminal-756021239-r2" x="976" y="556.8" textLength="12.2" clip-path="url(#terminal-756021239-line-22)">
</text><text class="terminal-756021239-r1" x="0" y="581.2" textLength="12.2" clip-path="url(#terminal-756021239-line-23)">╰</text><text class="terminal-756021239-r1" x="12.2" y="581.2" textLength="951.6" clip-path="url(#terminal-756021239-line-23)">──────────────────────────────────────────────────────────────────────────────</text><text class="terminal-756021239-r1" x="963.8" y="581.2" textLength="12.2" clip-path="url(#terminal-756021239-line-23)">╯</text>
    </g>
    </g>
</svg>
