<svg class="rich-terminal" viewBox="0 0 1726 1074.8" xmlns="http://www.w3.org/2000/svg">
    <!-- Generated with Rich https://www.textualize.io -->
    <style>

    @font-face {
        font-family: "Fira Code";
        src: local("FiraCode-Regular"),
                url("https://cdnjs.cloudflare.com/ajax/libs/firacode/6.2.0/woff2/FiraCode-Regular.woff2") format("woff2"),
                url("https://cdnjs.cloudflare.com/ajax/libs/firacode/6.2.0/woff/FiraCode-Regular.woff") format("woff");
        font-style: normal;
        font-weight: 400;
    }
    @font-face {
        font-family: "Fira Code";
        src: local("FiraCode-Bold"),
                url("https://cdnjs.cloudflare.com/ajax/libs/firacode/6.2.0/woff2/FiraCode-Bold.woff2") format("woff2"),
                url("https://cdnjs.cloudflare.com/ajax/libs/firacode/6.2.0/woff/FiraCode-Bold.woff") format("woff");
        font-style: bold;
        font-weight: 700;
    }

    .terminal-2631486725-matrix {
        font-family: Fira Code, monospace;
        font-size: 20px;
        line-height: 24.4px;
        font-variant-east-asian: full-width;
    }

    .terminal-2631486725-title {
        font-size: 18px;
        font-weight: bold;
        font-family: arial;
    }

    .terminal-2631486725-r1 { fill: #646464;font-weight: bold }
.terminal-2631486725-r2 { fill: #333333 }
.terminal-2631486725-r3 { fill: #4a4a4a }
.terminal-2631486725-r4 { fill: #e0e0e0 }
.terminal-2631486725-r5 { fill: #c5c8c6 }
.terminal-2631486725-r6 { fill: #676767;font-weight: bold }
.terminal-2631486725-r7 { fill: #232323 }
.terminal-2631486725-r8 { fill: #0e0e0e }
.terminal-2631486725-r9 { fill: #656565 }
.terminal-2631486725-r10 { fill: #000000 }
.terminal-2631486725-r11 { fill: #121212 }
.terminal-2631486725-r12 { fill: #737373 }
.terminal-2631486725-r13 { fill: #e1e1e1 }
.terminal-2631486725-r14 { fill: #b6b6b6 }
.terminal-2631486725-r15 { fill: #e1e1e1;font-weight: bold;text-decoration: underline; }
.terminal-2631486725-r16 { fill: #1d1d1d }
.terminal-2631486725-r17 { fill: #9e9e9e;text-decoration: underline; }
.terminal-2631486725-r18 { fill: #e0e0e0;font-weight: bold }
.terminal-2631486725-r19 { fill: #9d9d9d }
.terminal-2631486725-r20 { fill: #646464 }
.terminal-2631486725-r21 { fill: #696969;font-weight: bold }
.terminal-2631486725-r22 { fill: #3c3c3c }
.terminal-2631486725-r23 { fill: #515151;font-weight: bold }
.terminal-2631486725-r24 { fill: #2b2b2b }
    </style>

    <defs>
    <clipPath id="terminal-2631486725-clip-terminal">
      <rect x="0" y="0" width="1707.0" height="1023.8" />
    </clipPath>
    <clipPath id="terminal-2631486725-line-0">
    <rect x="0" y="1.5" width="1708" height="24.65"/>
            </clipPath>
<clipPath id="terminal-2631486725-line-1">
    <rect x="0" y="25.9" width="1708" height="24.65"/>
            </clipPath>
<clipPath id="terminal-2631486725-line-2">
    <rect x="0" y="50.3" width="1708" height="24.65"/>
            </clipPath>
<clipPath id="terminal-2631486725-line-3">
    <rect x="0" y="74.7" width="1708" height="24.65"/>
            </clipPath>
<clipPath id="terminal-2631486725-line-4">
    <rect x="0" y="99.1" width="1708" height="24.65"/>
            </clipPath>
<clipPath id="terminal-2631486725-line-5">
    <rect x="0" y="123.5" width="1708" height="24.65"/>
            </clipPath>
<clipPath id="terminal-2631486725-line-6">
    <rect x="0" y="147.9" width="1708" height="24.65"/>
            </clipPath>
<clipPath id="terminal-2631486725-line-7">
    <rect x="0" y="172.3" width="1708" height="24.65"/>
            </clipPath>
<clipPath id="terminal-2631486725-line-8">
    <rect x="0" y="196.7" width="1708" height="24.65"/>
            </clipPath>
<clipPath id="terminal-2631486725-line-9">
    <rect x="0" y="221.1" width="1708" height="24.65"/>
            </clipPath>
<clipPath id="terminal-2631486725-line-10">
    <rect x="0" y="245.5" width="1708" height="24.65"/>
            </clipPath>
<clipPath id="terminal-2631486725-line-11">
    <rect x="0" y="269.9" width="1708" height="24.65"/>
            </clipPath>
<clipPath id="terminal-2631486725-line-12">
    <rect x="0" y="294.3" width="1708" height="24.65"/>
            </clipPath>
<clipPath id="terminal-2631486725-line-13">
    <rect x="0" y="318.7" width="1708" height="24.65"/>
            </clipPath>
<clipPath id="terminal-2631486725-line-14">
    <rect x="0" y="343.1" width="1708" height="24.65"/>
            </clipPath>
<clipPath id="terminal-2631486725-line-15">
    <rect x="0" y="367.5" width="1708" height="24.65"/>
            </clipPath>
<clipPath id="terminal-2631486725-line-16">
    <rect x="0" y="391.9" width="1708" height="24.65"/>
            </clipPath>
<clipPath id="terminal-2631486725-line-17">
    <rect x="0" y="416.3" width="1708" height="24.65"/>
            </clipPath>
<clipPath id="terminal-2631486725-line-18">
    <rect x="0" y="440.7" width="1708" height="24.65"/>
            </clipPath>
<clipPath id="terminal-2631486725-line-19">
    <rect x="0" y="465.1" width="1708" height="24.65"/>
            </clipPath>
<clipPath id="terminal-2631486725-line-20">
    <rect x="0" y="489.5" width="1708" height="24.65"/>
            </clipPath>
<clipPath id="terminal-2631486725-line-21">
    <rect x="0" y="513.9" width="1708" height="24.65"/>
            </clipPath>
<clipPath id="terminal-2631486725-line-22">
    <rect x="0" y="538.3" width="1708" height="24.65"/>
            </clipPath>
<clipPath id="terminal-2631486725-line-23">
    <rect x="0" y="562.7" width="1708" height="24.65"/>
            </clipPath>
<clipPath id="terminal-2631486725-line-24">
    <rect x="0" y="587.1" width="1708" height="24.65"/>
            </clipPath>
<clipPath id="terminal-2631486725-line-25">
    <rect x="0" y="611.5" width="1708" height="24.65"/>
            </clipPath>
<clipPath id="terminal-2631486725-line-26">
    <rect x="0" y="635.9" width="1708" height="24.65"/>
            </clipPath>
<clipPath id="terminal-2631486725-line-27">
    <rect x="0" y="660.3" width="1708" height="24.65"/>
            </clipPath>
<clipPath id="terminal-2631486725-line-28">
    <rect x="0" y="684.7" width="1708" height="24.65"/>
            </clipPath>
<clipPath id="terminal-2631486725-line-29">
    <rect x="0" y="709.1" width="1708" height="24.65"/>
            </clipPath>
<clipPath id="terminal-2631486725-line-30">
    <rect x="0" y="733.5" width="1708" height="24.65"/>
            </clipPath>
<clipPath id="terminal-2631486725-line-31">
    <rect x="0" y="757.9" width="1708" height="24.65"/>
            </clipPath>
<clipPath id="terminal-2631486725-line-32">
    <rect x="0" y="782.3" width="1708" height="24.65"/>
            </clipPath>
<clipPath id="terminal-2631486725-line-33">
    <rect x="0" y="806.7" width="1708" height="24.65"/>
            </clipPath>
<clipPath id="terminal-2631486725-line-34">
    <rect x="0" y="831.1" width="1708" height="24.65"/>
            </clipPath>
<clipPath id="terminal-2631486725-line-35">
    <rect x="0" y="855.5" width="1708" height="24.65"/>
            </clipPath>
<clipPath id="terminal-2631486725-line-36">
    <rect x="0" y="879.9" width="1708" height="24.65"/>
            </clipPath>
<clipPath id="terminal-2631486725-line-37">
    <rect x="0" y="904.3" width="1708" height="24.65"/>
            </clipPath>
<clipPath id="terminal-2631486725-line-38">
    <rect x="0" y="928.7" width="1708" height="24.65"/>
            </clipPath>
<clipPath id="terminal-2631486725-line-39">
    <rect x="0" y="953.1" width="1708" height="24.65"/>
            </clipPath>
<clipPath id="terminal-2631486725-line-40">
    <rect x="0" y="977.5" width="1708" height="24.65"/>
            </clipPath>
    </defs>

    <rect fill="#292929" stroke="rgba(255,255,255,0.35)" stroke-width="1" x="1" y="1" width="1724" height="1072.8" rx="8"/><text class="terminal-2631486725-title" fill="#c5c8c6" text-anchor="middle" x="862" y="27">Console&#160;Workbench&#160;Command&#160;Palette</text>
            <g transform="translate(26,22)">
            <circle cx="0" cy="0" r="7" fill="#ff5f57"/>
            <circle cx="22" cy="0" r="7" fill="#febc2e"/>
            <circle cx="44" cy="0" r="7" fill="#28c840"/>
            </g>

    <g transform="translate(9, 41)" clip-path="url(#terminal-2631486725-clip-terminal)">
    <rect fill="#161616" x="0" y="1.5" width="73.2" height="24.65" shape-rendering="crispEdges"/><rect fill="#2d2d2d" x="73.2" y="1.5" width="134.2" height="24.65" shape-rendering="crispEdges"/><rect fill="#161616" x="207.4" y="1.5" width="1122.4" height="24.65" shape-rendering="crispEdges"/><rect fill="#121212" x="1329.8" y="1.5" width="146.4" height="24.65" shape-rendering="crispEdges"/><rect fill="#121212" x="1476.2" y="1.5" width="231.8" height="24.65" shape-rendering="crispEdges"/><rect fill="#161616" x="0" y="25.9" width="73.2" height="24.65" shape-rendering="crispEdges"/><rect fill="#2d2d2d" x="73.2" y="25.9" width="12.2" height="24.65" shape-rendering="crispEdges"/><rect fill="#2d2d2d" x="85.4" y="25.9" width="109.8" height="24.65" shape-rendering="crispEdges"/><rect fill="#2d2d2d" x="195.2" y="25.9" width="12.2" height="24.65" shape-rendering="crispEdges"/><rect fill="#161616" x="207.4" y="25.9" width="1122.4" height="24.65" shape-rendering="crispEdges"/><rect fill="#121212" x="1329.8" y="25.9" width="146.4" height="24.65" shape-rendering="crispEdges"/><rect fill="#121212" x="1476.2" y="25.9" width="231.8" height="24.65" shape-rendering="crispEdges"/><rect fill="#121212" x="0" y="50.3" width="1708" height="24.65" shape-rendering="crispEdges"/><rect fill="#1d1d1d" x="0" y="74.7" width="1708" height="24.65" shape-rendering="crispEdges"/><rect fill="#1d1d1d" x="0" y="99.1" width="12.2" height="24.65" shape-rendering="crispEdges"/><rect fill="#1d1d1d" x="12.2" y="99.1" width="36.6" height="24.65" shape-rendering="crispEdges"/><rect fill="#1e1e1e" x="48.8" y="99.1" width="1647" height="24.65" shape-rendering="crispEdges"/><rect fill="#1d1d1d" x="1695.8" y="99.1" width="12.2" height="24.65" shape-rendering="crispEdges"/><rect fill="#1d1d1d" x="0" y="123.5" width="12.2" height="24.65" shape-rendering="crispEdges"/><rect fill="#1d1d1d" x="12.2" y="123.5" width="12.2" height="24.65" shape-rendering="crispEdges"/><rect fill="#1d1d1d" x="24.4" y="123.5" width="24.4" height="24.65" shape-rendering="crispEdges"/><rect fill="#1e1e1e" x="48.8" y="123.5" width="12.2" height="24.65" shape-rendering="crispEdges"/><rect fill="#e0e0e0" x="61" y="123.5" width="12.2" height="24.65" shape-rendering="crispEdges"/><rect fill="#1e1e1e" x="73.2" y="123.5" width="231.8" height="24.65" shape-rendering="crispEdges"/><rect fill="#1e1e1e" x="305" y="123.5" width="1378.6" height="24.65" shape-rendering="crispEdges"/><rect fill="#1e1e1e" x="1683.6" y="123.5" width="12.2" height="24.65" shape-rendering="crispEdges"/><rect fill="#1d1d1d" x="1695.8" y="123.5" width="12.2" height="24.65" shape-rendering="crispEdges"/><rect fill="#1d1d1d" x="0" y="147.9" width="12.2" height="24.65" shape-rendering="crispEdges"/><rect fill="#1d1d1d" x="12.2" y="147.9" width="12.2" height="24.65" shape-rendering="crispEdges"/><rect fill="#1d1d1d" x="24.4" y="147.9" width="24.4" height="24.65" shape-rendering="crispEdges"/><rect fill="#1e1e1e" x="48.8" y="147.9" width="1647" height="24.65" shape-rendering="crispEdges"/><rect fill="#1d1d1d" x="1695.8" y="147.9" width="12.2" height="24.65" shape-rendering="crispEdges"/><rect fill="#1d1d1d" x="0" y="172.3" width="1708" height="24.65" shape-rendering="crispEdges"/><rect fill="#1e1e1e" x="0" y="196.7" width="24.4" height="24.65" shape-rendering="crispEdges"/><rect fill="#1e1e1e" x="24.4" y="196.7" width="231.8" height="24.65" shape-rendering="crispEdges"/><rect fill="#1e1e1e" x="256.2" y="196.7" width="1427.4" height="24.65" shape-rendering="crispEdges"/><rect fill="#282828" x="1683.6" y="196.7" width="24.4" height="24.65" shape-rendering="crispEdges"/><rect fill="#1e1e1e" x="0" y="221.1" width="24.4" height="24.65" shape-rendering="crispEdges"/><rect fill="#1e1e1e" x="24.4" y="221.1" width="305" height="24.65" shape-rendering="crispEdges"/><rect fill="#1e1e1e" x="329.4" y="221.1" width="1354.2" height="24.65" shape-rendering="crispEdges"/><rect fill="#282828" x="1683.6" y="221.1" width="24.4" height="24.65" shape-rendering="crispEdges"/><rect fill="#1d1d1d" x="0" y="245.5" width="24.4" height="24.65" shape-rendering="crispEdges"/><rect fill="#1d1d1d" x="24.4" y="245.5" width="439.2" height="24.65" shape-rendering="crispEdges"/><rect fill="#1d1d1d" x="463.6" y="245.5" width="1220" height="24.65" shape-rendering="crispEdges"/><rect fill="#282828" x="1683.6" y="245.5" width="24.4" height="24.65" shape-rendering="crispEdges"/><rect fill="#1d1d1d" x="0" y="269.9" width="24.4" height="24.65" shape-rendering="crispEdges"/><rect fill="#1d1d1d" x="24.4" y="269.9" width="353.8" height="24.65" shape-rendering="crispEdges"/><rect fill="#1d1d1d" x="378.2" y="269.9" width="1305.4" height="24.65" shape-rendering="crispEdges"/><rect fill="#282828" x="1683.6" y="269.9" width="24.4" height="24.65" shape-rendering="crispEdges"/><rect fill="#1d1d1d" x="0" y="294.3" width="24.4" height="24.65" shape-rendering="crispEdges"/><rect fill="#1d1d1d" x="24.4" y="294.3" width="280.6" height="24.65" shape-rendering="crispEdges"/><rect fill="#1d1d1d" x="305" y="294.3" width="1378.6" height="24.65" shape-rendering="crispEdges"/><rect fill="#282828" x="1683.6" y="294.3" width="24.4" height="24.65" shape-rendering="crispEdges"/><rect fill="#1d1d1d" x="0" y="318.7" width="24.4" height="24.65" shape-rendering="crispEdges"/><rect fill="#1d1d1d" x="24.4" y="318.7" width="207.4" height="24.65" shape-rendering="crispEdges"/><rect fill="#1d1d1d" x="231.8" y="318.7" width="1451.8" height="24.65" shape-rendering="crispEdges"/><rect fill="#282828" x="1683.6" y="318.7" width="24.4" height="24.65" shape-rendering="crispEdges"/><rect fill="#1d1d1d" x="0" y="343.1" width="24.4" height="24.65" shape-rendering="crispEdges"/><rect fill="#1d1d1d" x="24.4" y="343.1" width="402.6" height="24.65" shape-rendering="crispEdges"/><rect fill="#1d1d1d" x="427" y="343.1" width="1256.6" height="24.65" shape-rendering="crispEdges"/><rect fill="#282828" x="1683.6" y="343.1" width="24.4" height="24.65" shape-rendering="crispEdges"/><rect fill="#1d1d1d" x="0" y="367.5" width="24.4" height="24.65" shape-rendering="crispEdges"/><rect fill="#1d1d1d" x="24.4" y="367.5" width="305" height="24.65" shape-rendering="crispEdges"/><rect fill="#1d1d1d" x="329.4" y="367.5" width="1354.2" height="24.65" shape-rendering="crispEdges"/><rect fill="#282828" x="1683.6" y="367.5" width="24.4" height="24.65" shape-rendering="crispEdges"/><rect fill="#1d1d1d" x="0" y="391.9" width="24.4" height="24.65" shape-rendering="crispEdges"/><rect fill="#1d1d1d" x="24.4" y="391.9" width="390.4" height="24.65" shape-rendering="crispEdges"/><rect fill="#1d1d1d" x="414.8" y="391.9" width="1268.8" height="24.65" shape-rendering="crispEdges"/><rect fill="#282828" x="1683.6" y="391.9" width="24.4" height="24.65" shape-rendering="crispEdges"/><rect fill="#1d1d1d" x="0" y="416.3" width="24.4" height="24.65" shape-rendering="crispEdges"/><rect fill="#1d1d1d" x="24.4" y="416.3" width="463.6" height="24.65" shape-rendering="crispEdges"/><rect fill="#1d1d1d" x="488" y="416.3" width="1195.6" height="24.65" shape-rendering="crispEdges"/><rect fill="#282828" x="1683.6" y="416.3" width="24.4" height="24.65" shape-rendering="crispEdges"/><rect fill="#1d1d1d" x="0" y="440.7" width="24.4" height="24.65" shape-rendering="crispEdges"/><rect fill="#1d1d1d" x="24.4" y="440.7" width="427" height="24.65" shape-rendering="crispEdges"/><rect fill="#1d1d1d" x="451.4" y="440.7" width="1232.2" height="24.65" shape-rendering="crispEdges"/><rect fill="#000000" x="1683.6" y="440.7" width="24.4" height="24.65" shape-rendering="crispEdges"/><rect fill="#1d1d1d" x="0" y="465.1" width="24.4" height="24.65" shape-rendering="crispEdges"/><rect fill="#1d1d1d" x="24.4" y="465.1" width="305" height="24.65" shape-rendering="crispEdges"/><rect fill="#1d1d1d" x="329.4" y="465.1" width="1354.2" height="24.65" shape-rendering="crispEdges"/><rect fill="#000000" x="1683.6" y="465.1" width="24.4" height="24.65" shape-rendering="crispEdges"/><rect fill="#1d1d1d" x="0" y="489.5" width="24.4" height="24.65" shape-rendering="crispEdges"/><rect fill="#1d1d1d" x="24.4" y="489.5" width="402.6" height="24.65" shape-rendering="crispEdges"/><rect fill="#1d1d1d" x="427" y="489.5" width="1256.6" height="24.65" shape-rendering="crispEdges"/><rect fill="#000000" x="1683.6" y="489.5" width="24.4" height="24.65" shape-rendering="crispEdges"/><rect fill="#1d1d1d" x="0" y="513.9" width="24.4" height="24.65" shape-rendering="crispEdges"/><rect fill="#1d1d1d" x="24.4" y="513.9" width="256.2" height="24.65" shape-rendering="crispEdges"/><rect fill="#1d1d1d" x="280.6" y="513.9" width="1403" height="24.65" shape-rendering="crispEdges"/><rect fill="#000000" x="1683.6" y="513.9" width="24.4" height="24.65" shape-rendering="crispEdges"/><rect fill="#1d1d1d" x="0" y="538.3" width="24.4" height="24.65" shape-rendering="crispEdges"/><rect fill="#1d1d1d" x="24.4" y="538.3" width="427" height="24.65" shape-rendering="crispEdges"/><rect fill="#1d1d1d" x="451.4" y="538.3" width="1232.2" height="24.65" shape-rendering="crispEdges"/><rect fill="#000000" x="1683.6" y="538.3" width="24.4" height="24.65" shape-rendering="crispEdges"/><rect fill="#1d1d1d" x="0" y="562.7" width="24.4" height="24.65" shape-rendering="crispEdges"/><rect fill="#1d1d1d" x="24.4" y="562.7" width="390.4" height="24.65" shape-rendering="crispEdges"/><rect fill="#1d1d1d" x="414.8" y="562.7" width="1268.8" height="24.65" shape-rendering="crispEdges"/><rect fill="#000000" x="1683.6" y="562.7" width="24.4" height="24.65" shape-rendering="crispEdges"/><rect fill="#1d1d1d" x="0" y="587.1" width="24.4" height="24.65" shape-rendering="crispEdges"/><rect fill="#1d1d1d" x="24.4" y="587.1" width="427" height="24.65" shape-rendering="crispEdges"/><rect fill="#1d1d1d" x="451.4" y="587.1" width="1232.2" height="24.65" shape-rendering="crispEdges"/><rect fill="#000000" x="1683.6" y="587.1" width="24.4" height="24.65" shape-rendering="crispEdges"/><rect fill="#1d1d1d" x="0" y="611.5" width="24.4" height="24.65" shape-rendering="crispEdges"/><rect fill="#1d1d1d" x="24.4" y="611.5" width="378.2" height="24.65" shape-rendering="crispEdges"/><rect fill="#1d1d1d" x="402.6" y="611.5" width="1281" height="24.65" shape-rendering="crispEdges"/><rect fill="#000000" x="1683.6" y="611.5" width="24.4" height="24.65" shape-rendering="crispEdges"/><rect fill="#1d1d1d" x="0" y="635.9" width="24.4" height="24.65" shape-rendering="crispEdges"/><rect fill="#1d1d1d" x="24.4" y="635.9" width="366" height="24.65" shape-rendering="crispEdges"/><rect fill="#1d1d1d" x="390.4" y="635.9" width="1293.2" height="24.65" shape-rendering="crispEdges"/><rect fill="#000000" x="1683.6" y="635.9" width="24.4" height="24.65" shape-rendering="crispEdges"/><rect fill="#1d1d1d" x="0" y="660.3" width="24.4" height="24.65" shape-rendering="crispEdges"/><rect fill="#1d1d1d" x="24.4" y="660.3" width="793" height="24.65" shape-rendering="crispEdges"/><rect fill="#1d1d1d" x="817.4" y="660.3" width="866.2" height="24.65" shape-rendering="crispEdges"/><rect fill="#000000" x="1683.6" y="660.3" width="24.4" height="24.65" shape-rendering="crispEdges"/><rect fill="#1d1d1d" x="0" y="684.7" width="24.4" height="24.65" shape-rendering="crispEdges"/><rect fill="#1d1d1d" x="24.4" y="684.7" width="402.6" height="24.65" shape-rendering="crispEdges"/><rect fill="#1d1d1d" x="427" y="684.7" width="1256.6" height="24.65" shape-rendering="crispEdges"/><rect fill="#000000" x="1683.6" y="684.7" width="24.4" height="24.65" shape-rendering="crispEdges"/><rect fill="#1d1d1d" x="0" y="709.1" width="24.4" height="24.65" shape-rendering="crispEdges"/><rect fill="#1d1d1d" x="24.4" y="709.1" width="915" height="24.65" shape-rendering="crispEdges"/><rect fill="#1d1d1d" x="939.4" y="709.1" width="744.2" height="24.65" shape-rendering="crispEdges"/><rect fill="#000000" x="1683.6" y="709.1" width="24.4" height="24.65" shape-rendering="crispEdges"/><rect fill="#1d1d1d" x="0" y="733.5" width="24.4" height="24.65" shape-rendering="crispEdges"/><rect fill="#1d1d1d" x="24.4" y="733.5" width="402.6" height="24.65" shape-rendering="crispEdges"/><rect fill="#1d1d1d" x="427" y="733.5" width="1256.6" height="24.65" shape-rendering="crispEdges"/><rect fill="#000000" x="1683.6" y="733.5" width="24.4" height="24.65" shape-rendering="crispEdges"/><rect fill="#1d1d1d" x="0" y="757.9" width="24.4" height="24.65" shape-rendering="crispEdges"/><rect fill="#1d1d1d" x="24.4" y="757.9" width="1549.4" height="24.65" shape-rendering="crispEdges"/><rect fill="#1d1d1d" x="1573.8" y="757.9" width="109.8" height="24.65" shape-rendering="crispEdges"/><rect fill="#000000" x="1683.6" y="757.9" width="24.4" height="24.65" shape-rendering="crispEdges"/><rect fill="#1d1d1d" x="0" y="782.3" width="24.4" height="24.65" shape-rendering="crispEdges"/><rect fill="#1d1d1d" x="24.4" y="782.3" width="427" height="24.65" shape-rendering="crispEdges"/><rect fill="#1d1d1d" x="451.4" y="782.3" width="1232.2" height="24.65" shape-rendering="crispEdges"/><rect fill="#000000" x="1683.6" y="782.3" width="24.4" height="24.65" shape-rendering="crispEdges"/><rect fill="#1d1d1d" x="0" y="806.7" width="24.4" height="24.65" shape-rendering="crispEdges"/><rect fill="#1d1d1d" x="24.4" y="806.7" width="976" height="24.65" shape-rendering="crispEdges"/><rect fill="#1d1d1d" x="1000.4" y="806.7" width="683.2" height="24.65" shape-rendering="crispEdges"/><rect fill="#000000" x="1683.6" y="806.7" width="24.4" height="24.65" shape-rendering="crispEdges"/><rect fill="#1d1d1d" x="0" y="831.1" width="24.4" height="24.65" shape-rendering="crispEdges"/><rect fill="#1d1d1d" x="24.4" y="831.1" width="353.8" height="24.65" shape-rendering="crispEdges"/><rect fill="#1d1d1d" x="378.2" y="831.1" width="1305.4" height="24.65" shape-rendering="crispEdges"/><rect fill="#000000" x="1683.6" y="831.1" width="24.4" height="24.65" shape-rendering="crispEdges"/><rect fill="#1d1d1d" x="0" y="855.5" width="1708" height="24.65" shape-rendering="crispEdges"/><rect fill="#161616" x="0" y="879.9" width="1708" height="24.65" shape-rendering="crispEdges"/><rect fill="#161616" x="0" y="904.3" width="12.2" height="24.65" shape-rendering="crispEdges"/><rect fill="#161616" x="12.2" y="904.3" width="1683.6" height="24.65" shape-rendering="crispEdges"/><rect fill="#161616" x="1695.8" y="904.3" width="12.2" height="24.65" shape-rendering="crispEdges"/><rect fill="#161616" x="0" y="928.7" width="12.2" height="24.65" shape-rendering="crispEdges"/><rect fill="#161616" x="12.2" y="928.7" width="12.2" height="24.65" shape-rendering="crispEdges"/><rect fill="#161616" x="24.4" y="928.7" width="109.8" height="24.65" shape-rendering="crispEdges"/><rect fill="#161616" x="134.2" y="928.7" width="24.4" height="24.65" shape-rendering="crispEdges"/><rect fill="#161616" x="158.6" y="928.7" width="536.8" height="24.65" shape-rendering="crispEdges"/><rect fill="#161616" x="695.4" y="928.7" width="573.4" height="24.65" shape-rendering="crispEdges"/><rect fill="#1c1c1c" x="1268.8" y="928.7" width="12.2" height="24.65" shape-rendering="crispEdges"/><rect fill="#1c1c1c" x="1281" y="928.7" width="73.2" height="24.65" shape-rendering="crispEdges"/><rect fill="#1c1c1c" x="1354.2" y="928.7" width="24.4" height="24.65" shape-rendering="crispEdges"/><rect fill="#1c1c1c" x="1378.6" y="928.7" width="73.2" height="24.65" shape-rendering="crispEdges"/><rect fill="#1c1c1c" x="1451.8" y="928.7" width="12.2" height="24.65" shape-rendering="crispEdges"/><rect fill="#161616" x="1464" y="928.7" width="12.2" height="24.65" shape-rendering="crispEdges"/><rect fill="#161616" x="1476.2" y="928.7" width="97.6" height="24.65" shape-rendering="crispEdges"/><rect fill="#161616" x="1573.8" y="928.7" width="12.2" height="24.65" shape-rendering="crispEdges"/><rect fill="#1c1c1c" x="1586" y="928.7" width="12.2" height="24.65" shape-rendering="crispEdges"/><rect fill="#1c1c1c" x="1598.2" y="928.7" width="73.2" height="24.65" shape-rendering="crispEdges"/><rect fill="#1c1c1c" x="1671.4" y="928.7" width="12.2" height="24.65" shape-rendering="crispEdges"/><rect fill="#161616" x="1683.6" y="928.7" width="12.2" height="24.65" shape-rendering="crispEdges"/><rect fill="#161616" x="1695.8" y="928.7" width="12.2" height="24.65" shape-rendering="crispEdges"/><rect fill="#161616" x="0" y="953.1" width="12.2" height="24.65" shape-rendering="crispEdges"/><rect fill="#161616" x="12.2" y="953.1" width="1683.6" height="24.65" shape-rendering="crispEdges"/><rect fill="#161616" x="1695.8" y="953.1" width="12.2" height="24.65" shape-rendering="crispEdges"/><rect fill="#161616" x="0" y="977.5" width="1708" height="24.65" shape-rendering="crispEdges"/><rect fill="#1c1c1c" x="0" y="1001.9" width="48.8" height="24.65" shape-rendering="crispEdges"/><rect fill="#1c1c1c" x="48.8" y="1001.9" width="109.8" height="24.65" shape-rendering="crispEdges"/><rect fill="#1c1c1c" x="158.6" y="1001.9" width="48.8" height="24.65" shape-rendering="crispEdges"/><rect fill="#1c1c1c" x="207.4" y="1001.9" width="158.6" height="24.65" shape-rendering="crispEdges"/><rect fill="#1c1c1c" x="366" y="1001.9" width="1134.6" height="24.65" shape-rendering="crispEdges"/><rect fill="#1c1c1c" x="1500.6" y="1001.9" width="12.2" height="24.65" shape-rendering="crispEdges"/><rect fill="#1c1c1c" x="1512.8" y="1001.9" width="24.4" height="24.65" shape-rendering="crispEdges"/><rect fill="#1c1c1c" x="1537.2" y="1001.9" width="158.6" height="24.65" shape-rendering="crispEdges"/><rect fill="#1c1c1c" x="1695.8" y="1001.9" width="12.2" height="24.65" shape-rendering="crispEdges"/>
    <g class="terminal-2631486725-matrix">
    <text class="terminal-2631486725-r2" x="73.2" y="20" textLength="134.2" clip-path="url(#terminal-2631486725-line-0)">╭─────────╮</text><text class="terminal-2631486725-r5" x="1708" y="20" textLength="12.2" clip-path="url(#terminal-2631486725-line-0)">
</text><text class="terminal-2631486725-r1" x="0" y="44.4" textLength="73.2" clip-path="url(#terminal-2631486725-line-1)">&#160;Home&#160;</text><text class="terminal-2631486725-r2" x="73.2" y="44.4" textLength="12.2" clip-path="url(#terminal-2631486725-line-1)">│</text><text class="terminal-2631486725-r6" x="85.4" y="44.4" textLength="109.8" clip-path="url(#terminal-2631486725-line-1)">&#160;Console&#160;</text><text class="terminal-2631486725-r2" x="195.2" y="44.4" textLength="12.2" clip-path="url(#terminal-2631486725-line-1)">│</text><text class="terminal-2631486725-r1" x="207.4" y="44.4" textLength="1122.4" clip-path="url(#terminal-2631486725-line-1)">&#160;Library&#160;&#160;Artifacts&#160;&#160;Personas&#160;&#160;Watchlists&#160;&#160;Schedules&#160;&#160;Workflows&#160;&#160;MCP&#160;&#160;ACP&#160;&#160;Skills&#160;&#160;Settings&#160;</text><text class="terminal-2631486725-r3" x="1329.8" y="44.4" textLength="146.4" clip-path="url(#terminal-2631486725-line-1)">More:&#160;Ctrl+P</text><text class="terminal-2631486725-r5" x="1708" y="44.4" textLength="12.2" clip-path="url(#terminal-2631486725-line-1)">
</text><text class="terminal-2631486725-r7" x="0" y="68.8" textLength="1708" clip-path="url(#terminal-2631486725-line-2)">────────────────────────────────────────────────────────────────────────────────────────────────────────────────────────────────────────────</text><text class="terminal-2631486725-r5" x="1708" y="68.8" textLength="12.2" clip-path="url(#terminal-2631486725-line-2)">
</text><text class="terminal-2631486725-r8" x="0" y="93.2" textLength="1708" clip-path="url(#terminal-2631486725-line-3)">▔▔▔▔▔▔▔▔▔▔▔▔▔▔▔▔▔▔▔▔▔▔▔▔▔▔▔▔▔▔▔▔▔▔▔▔▔▔▔▔▔▔▔▔▔▔▔▔▔▔▔▔▔▔▔▔▔▔▔▔▔▔▔▔▔▔▔▔▔▔▔▔▔▔▔▔▔▔▔▔▔▔▔▔▔▔▔▔▔▔▔▔▔▔▔▔▔▔▔▔▔▔▔▔▔▔▔▔▔▔▔▔▔▔▔▔▔▔▔▔▔▔▔▔▔▔▔▔▔▔▔▔▔▔▔▔▔▔▔▔</text><text class="terminal-2631486725-r5" x="1708" y="93.2" textLength="12.2" clip-path="url(#terminal-2631486725-line-3)">
</text><text class="terminal-2631486725-r9" x="48.8" y="117.6" textLength="1647" clip-path="url(#terminal-2631486725-line-4)">┌─────────────────────────────────────────────────────────────────────────────────────────────────────────────────────────────────────┐</text><text class="terminal-2631486725-r5" x="1708" y="117.6" textLength="12.2" clip-path="url(#terminal-2631486725-line-4)">
</text><text class="terminal-2631486725-r10" x="24.4" y="142" textLength="12.2" clip-path="url(#terminal-2631486725-line-5)">🔎</text><text class="terminal-2631486725-r9" x="48.8" y="142" textLength="12.2" clip-path="url(#terminal-2631486725-line-5)">│</text><text class="terminal-2631486725-r11" x="61" y="142" textLength="12.2" clip-path="url(#terminal-2631486725-line-5)">S</text><text class="terminal-2631486725-r12" x="73.2" y="142" textLength="231.8" clip-path="url(#terminal-2631486725-line-5)">earch&#160;for&#160;commands…</text><text class="terminal-2631486725-r9" x="1683.6" y="142" textLength="12.2" clip-path="url(#terminal-2631486725-line-5)">│</text><text class="terminal-2631486725-r5" x="1708" y="142" textLength="12.2" clip-path="url(#terminal-2631486725-line-5)">
</text><text class="terminal-2631486725-r9" x="48.8" y="166.4" textLength="1647" clip-path="url(#terminal-2631486725-line-6)">└─────────────────────────────────────────────────────────────────────────────────────────────────────────────────────────────────────┘</text><text class="terminal-2631486725-r5" x="1708" y="166.4" textLength="12.2" clip-path="url(#terminal-2631486725-line-6)">
</text><text class="terminal-2631486725-r5" x="1708" y="190.8" textLength="12.2" clip-path="url(#terminal-2631486725-line-7)">
</text><text class="terminal-2631486725-r15" x="24.4" y="215.2" textLength="231.8" clip-path="url(#terminal-2631486725-line-8)">Theme:&#160;Change&#160;Theme</text><text class="terminal-2631486725-r5" x="1708" y="215.2" textLength="12.2" clip-path="url(#terminal-2631486725-line-8)">
</text><text class="terminal-2631486725-r17" x="24.4" y="239.6" textLength="305" clip-path="url(#terminal-2631486725-line-9)">Open&#160;theme&#160;selection&#160;menu</text><text class="terminal-2631486725-r5" x="1708" y="239.6" textLength="12.2" clip-path="url(#terminal-2631486725-line-9)">
</text><text class="terminal-2631486725-r18" x="24.4" y="264" textLength="439.2" clip-path="url(#terminal-2631486725-line-10)">Quick&#160;Actions:&#160;New&#160;Chat&#160;Conversation</text><text class="terminal-2631486725-r5" x="1708" y="264" textLength="12.2" clip-path="url(#terminal-2631486725-line-10)">
</text><text class="terminal-2631486725-r19" x="24.4" y="288.4" textLength="353.8" clip-path="url(#terminal-2631486725-line-11)">Start&#160;a&#160;new&#160;chat&#160;conversation</text><text class="terminal-2631486725-r5" x="1708" y="288.4" textLength="12.2" clip-path="url(#terminal-2631486725-line-11)">
</text><text class="terminal-2631486725-r18" x="24.4" y="312.8" textLength="280.6" clip-path="url(#terminal-2631486725-line-12)">Quick&#160;Actions:&#160;New&#160;Note</text><text class="terminal-2631486725-r5" x="1708" y="312.8" textLength="12.2" clip-path="url(#terminal-2631486725-line-12)">
</text><text class="terminal-2631486725-r19" x="24.4" y="337.2" textLength="207.4" clip-path="url(#terminal-2631486725-line-13)">Create&#160;a&#160;new&#160;note</text><text class="terminal-2631486725-r5" x="1708" y="337.2" textLength="12.2" clip-path="url(#terminal-2631486725-line-13)">
</text><text class="terminal-2631486725-r18" x="24.4" y="361.6" textLength="402.6" clip-path="url(#terminal-2631486725-line-14)">Quick&#160;Actions:&#160;Search&#160;All&#160;Content</text><text class="terminal-2631486725-r5" x="1708" y="361.6" textLength="12.2" clip-path="url(#terminal-2631486725-line-14)">
</text><text class="terminal-2631486725-r19" x="24.4" y="386" textLength="305" clip-path="url(#terminal-2631486725-line-15)">Search&#160;across&#160;all&#160;content</text><text class="terminal-2631486725-r5" x="1708" y="386" textLength="12.2" clip-path="url(#terminal-2631486725-line-15)">
</text><text class="terminal-2631486725-r18" x="24.4" y="410.4" textLength="390.4" clip-path="url(#terminal-2631486725-line-16)">Quick&#160;Actions:&#160;Import&#160;Media&#160;File</text><text class="terminal-2631486725-r5" x="1708" y="410.4" textLength="12.2" clip-path="url(#terminal-2631486725-line-16)">
</text><text class="terminal-2631486725-r19" x="24.4" y="434.8" textLength="463.6" clip-path="url(#terminal-2631486725-line-17)">Import&#160;a&#160;new&#160;media&#160;file&#160;for&#160;processing</text><text class="terminal-2631486725-r10" x="1683.6" y="434.8" textLength="24.4" clip-path="url(#terminal-2631486725-line-17)">▁▁</text><text class="terminal-2631486725-r5" x="1708" y="434.8" textLength="12.2" clip-path="url(#terminal-2631486725-line-17)">
</text><text class="terminal-2631486725-r18" x="24.4" y="459.2" textLength="427" clip-path="url(#terminal-2631486725-line-18)">Media&#160;&amp;&#160;Content:&#160;Open&#160;Media&#160;Library</text><text class="terminal-2631486725-r5" x="1708" y="459.2" textLength="12.2" clip-path="url(#terminal-2631486725-line-18)">
</text><text class="terminal-2631486725-r19" x="24.4" y="483.6" textLength="305" clip-path="url(#terminal-2631486725-line-19)">Navigate&#160;to&#160;media&#160;library</text><text class="terminal-2631486725-r5" x="1708" y="483.6" textLength="12.2" clip-path="url(#terminal-2631486725-line-19)">
</text><text class="terminal-2631486725-r18" x="24.4" y="508" textLength="402.6" clip-path="url(#terminal-2631486725-line-20)">Media&#160;&amp;&#160;Content:&#160;Import&#160;New&#160;Media</text><text class="terminal-2631486725-r5" x="1708" y="508" textLength="12.2" clip-path="url(#terminal-2631486725-line-20)">
</text><text class="terminal-2631486725-r19" x="24.4" y="532.4" textLength="256.2" clip-path="url(#terminal-2631486725-line-21)">Import&#160;new&#160;media&#160;file</text><text class="terminal-2631486725-r5" x="1708" y="532.4" textLength="12.2" clip-path="url(#terminal-2631486725-line-21)">
</text><text class="terminal-2631486725-r18" x="24.4" y="556.8" textLength="427" clip-path="url(#terminal-2631486725-line-22)">Media&#160;&amp;&#160;Content:&#160;Search&#160;Transcripts</text><text class="terminal-2631486725-r5" x="1708" y="556.8" textLength="12.2" clip-path="url(#terminal-2631486725-line-22)">
</text><text class="terminal-2631486725-r19" x="24.4" y="581.2" textLength="390.4" clip-path="url(#terminal-2631486725-line-23)">Search&#160;through&#160;media&#160;transcripts</text><text class="terminal-2631486725-r5" x="1708" y="581.2" textLength="12.2" clip-path="url(#terminal-2631486725-line-23)">
</text><text class="terminal-2631486725-r18" x="24.4" y="605.6" textLength="427" clip-path="url(#terminal-2631486725-line-24)">Media&#160;&amp;&#160;Content:&#160;Recent&#160;Media&#160;Files</text><text class="terminal-2631486725-r5" x="1708" y="605.6" textLength="12.2" clip-path="url(#terminal-2631486725-line-24)">
</text><text class="terminal-2631486725-r19" x="24.4" y="630" textLength="378.2" clip-path="url(#terminal-2631486725-line-25)">Show&#160;recently&#160;added&#160;media&#160;files</text><text class="terminal-2631486725-r5" x="1708" y="630" textLength="12.2" clip-path="url(#terminal-2631486725-line-25)">
</text><text class="terminal-2631486725-r18" x="24.4" y="654.4" textLength="366" clip-path="url(#terminal-2631486725-line-26)">Tab&#160;Navigation:&#160;Switch&#160;to&#160;Home</text><text class="terminal-2631486725-r5" x="1708" y="654.4" textLength="12.2" clip-path="url(#terminal-2631486725-line-26)">
</text><text class="terminal-2631486725-r19" x="24.4" y="678.8" textLength="793" clip-path="url(#terminal-2631486725-line-27)">Open&#160;Home&#160;for&#160;Dashboard,&#160;notifications,&#160;status,&#160;and&#160;next&#160;actions.</text><text class="terminal-2631486725-r5" x="1708" y="678.8" textLength="12.2" clip-path="url(#terminal-2631486725-line-27)">
</text><text class="terminal-2631486725-r18" x="24.4" y="703.2" textLength="402.6" clip-path="url(#terminal-2631486725-line-28)">Tab&#160;Navigation:&#160;Switch&#160;to&#160;Console</text><text class="terminal-2631486725-r5" x="1708" y="703.2" textLength="12.2" clip-path="url(#terminal-2631486725-line-28)">
</text><text class="terminal-2631486725-r19" x="24.4" y="727.6" textLength="915" clip-path="url(#terminal-2631486725-line-29)">Open&#160;Console&#160;for&#160;Live&#160;agent&#160;conversations,&#160;approvals,&#160;tools,&#160;RAG,&#160;and&#160;runs.</text><text class="terminal-2631486725-r5" x="1708" y="727.6" textLength="12.2" clip-path="url(#terminal-2631486725-line-29)">
</text><text class="terminal-2631486725-r18" x="24.4" y="752" textLength="402.6" clip-path="url(#terminal-2631486725-line-30)">Tab&#160;Navigation:&#160;Switch&#160;to&#160;Library</text><text class="terminal-2631486725-r5" x="1708" y="752" textLength="12.2" clip-path="url(#terminal-2631486725-line-30)">
</text><text class="terminal-2631486725-r19" x="24.4" y="776.4" textLength="1549.4" clip-path="url(#terminal-2631486725-line-31)">Open&#160;Library&#160;for&#160;Workspaces,&#160;source&#160;material,&#160;imports,&#160;notes,&#160;media,&#160;conversations,&#160;Study,&#160;flashcards,&#160;quizzes,&#160;and&#160;Search/RAG.</text><text class="terminal-2631486725-r5" x="1708" y="776.4" textLength="12.2" clip-path="url(#terminal-2631486725-line-31)">
</text><text class="terminal-2631486725-r18" x="24.4" y="800.8" textLength="427" clip-path="url(#terminal-2631486725-line-32)">Tab&#160;Navigation:&#160;Switch&#160;to&#160;Artifacts</text><text class="terminal-2631486725-r5" x="1708" y="800.8" textLength="12.2" clip-path="url(#terminal-2631486725-line-32)">
</text><text class="terminal-2631486725-r19" x="24.4" y="825.2" textLength="976" clip-path="url(#terminal-2631486725-line-33)">Open&#160;Artifacts&#160;for&#160;Generated&#160;outputs,&#160;bundles,&#160;reports,&#160;datasets,&#160;and&#160;Chatbooks.</text><text class="terminal-2631486725-r5" x="1708" y="825.2" textLength="12.2" clip-path="url(#terminal-2631486725-line-33)">
</text><text class="terminal-2631486725-r18" x="24.4" y="849.6" textLength="353.8" clip-path="url(#terminal-2631486725-line-34)">Tab&#160;Navigation:&#160;Switch&#160;to&#160;MCP</text><text class="terminal-2631486725-r5" x="1708" y="849.6" textLength="12.2" clip-path="url(#terminal-2631486725-line-34)">
</text><text class="terminal-2631486725-r10" x="0" y="874" textLength="1708" clip-path="url(#terminal-2631486725-line-35)">▁▁▁▁▁▁▁▁▁▁▁▁▁▁▁▁▁▁▁▁▁▁▁▁▁▁▁▁▁▁▁▁▁▁▁▁▁▁▁▁▁▁▁▁▁▁▁▁▁▁▁▁▁▁▁▁▁▁▁▁▁▁▁▁▁▁▁▁▁▁▁▁▁▁▁▁▁▁▁▁▁▁▁▁▁▁▁▁▁▁▁▁▁▁▁▁▁▁▁▁▁▁▁▁▁▁▁▁▁▁▁▁▁▁▁▁▁▁▁▁▁▁▁▁▁▁▁▁▁▁▁▁▁▁▁▁▁▁▁▁</text><text class="terminal-2631486725-r5" x="1708" y="874" textLength="12.2" clip-path="url(#terminal-2631486725-line-35)">
</text><text class="terminal-2631486725-r2" x="0" y="898.4" textLength="1708" clip-path="url(#terminal-2631486725-line-36)">┌──────────────────────────────────────────────────────────────────────────────────────────────────────────────────────────────────────────┐</text><text class="terminal-2631486725-r5" x="1708" y="898.4" textLength="12.2" clip-path="url(#terminal-2631486725-line-36)">
</text><text class="terminal-2631486725-r2" x="0" y="922.8" textLength="12.2" clip-path="url(#terminal-2631486725-line-37)">│</text><text class="terminal-2631486725-r2" x="1695.8" y="922.8" textLength="12.2" clip-path="url(#terminal-2631486725-line-37)">│</text><text class="terminal-2631486725-r5" x="1708" y="922.8" textLength="12.2" clip-path="url(#terminal-2631486725-line-37)">
</text><text class="terminal-2631486725-r2" x="0" y="947.2" textLength="12.2" clip-path="url(#terminal-2631486725-line-38)">│</text><text class="terminal-2631486725-r20" x="24.4" y="947.2" textLength="109.8" clip-path="url(#terminal-2631486725-line-38)">Composer:</text><text class="terminal-2631486725-r21" x="158.6" y="947.2" textLength="536.8" clip-path="url(#terminal-2631486725-line-38)">Setup&#160;required:&#160;Choose&#160;model&#160;before&#160;sending.</text><text class="terminal-2631486725-r22" x="1281" y="947.2" textLength="73.2" clip-path="url(#terminal-2631486725-line-38)">&#160;Send&#160;</text><text class="terminal-2631486725-r22" x="1378.6" y="947.2" textLength="73.2" clip-path="url(#terminal-2631486725-line-38)">&#160;Stop&#160;</text><text class="terminal-2631486725-r1" x="1476.2" y="947.2" textLength="97.6" clip-path="url(#terminal-2631486725-line-38)">&#160;Attach&#160;</text><text class="terminal-2631486725-r22" x="1598.2" y="947.2" textLength="73.2" clip-path="url(#terminal-2631486725-line-38)">&#160;Save&#160;</text><text class="terminal-2631486725-r2" x="1695.8" y="947.2" textLength="12.2" clip-path="url(#terminal-2631486725-line-38)">│</text><text class="terminal-2631486725-r5" x="1708" y="947.2" textLength="12.2" clip-path="url(#terminal-2631486725-line-38)">
</text><text class="terminal-2631486725-r2" x="0" y="971.6" textLength="12.2" clip-path="url(#terminal-2631486725-line-39)">│</text><text class="terminal-2631486725-r2" x="1695.8" y="971.6" textLength="12.2" clip-path="url(#terminal-2631486725-line-39)">│</text><text class="terminal-2631486725-r5" x="1708" y="971.6" textLength="12.2" clip-path="url(#terminal-2631486725-line-39)">
</text><text class="terminal-2631486725-r2" x="0" y="996" textLength="1708" clip-path="url(#terminal-2631486725-line-40)">└──────────────────────────────────────────────────────────────────────────────────────────────────────────────────────────────────────────┘</text><text class="terminal-2631486725-r5" x="1708" y="996" textLength="12.2" clip-path="url(#terminal-2631486725-line-40)">
</text><text class="terminal-2631486725-r23" x="0" y="1020.4" textLength="48.8" clip-path="url(#terminal-2631486725-line-41)">&#160;^q&#160;</text><text class="terminal-2631486725-r20" x="48.8" y="1020.4" textLength="109.8" clip-path="url(#terminal-2631486725-line-41)">Quit&#160;App&#160;</text><text class="terminal-2631486725-r23" x="158.6" y="1020.4" textLength="48.8" clip-path="url(#terminal-2631486725-line-41)">&#160;^p&#160;</text><text class="terminal-2631486725-r20" x="207.4" y="1020.4" textLength="158.6" clip-path="url(#terminal-2631486725-line-41)">Palette&#160;Menu&#160;</text><text class="terminal-2631486725-r24" x="1500.6" y="1020.4" textLength="12.2" clip-path="url(#terminal-2631486725-line-41)">▏</text><text class="terminal-2631486725-r23" x="1512.8" y="1020.4" textLength="24.4" clip-path="url(#terminal-2631486725-line-41)">^p</text><text class="terminal-2631486725-r20" x="1537.2" y="1020.4" textLength="158.6" clip-path="url(#terminal-2631486725-line-41)">&#160;Palette&#160;Menu</text>
    </g>
    </g>
</svg>
