<svg class="rich-terminal" viewBox="0 0 750 538.0" xmlns="http://www.w3.org/2000/svg">
    <!-- Generated with Rich https://www.textualize.io -->
    <style>

    @font-face {
        font-family: "Fira Code";
        src: local("FiraCode-Regular"),
                url("https://cdnjs.cloudflare.com/ajax/libs/firacode/6.2.0/woff2/FiraCode-Regular.woff2") format("woff2"),
                url("https://cdnjs.cloudflare.com/ajax/libs/firacode/6.2.0/woff/FiraCode-Regular.woff") format("woff");
        font-style: normal;
        font-weight: 400;
    }
    @font-face {
        font-family: "Fira Code";
        src: local("FiraCode-Bold"),
                url("https://cdnjs.cloudflare.com/ajax/libs/firacode/6.2.0/woff2/FiraCode-Bold.woff2") format("woff2"),
                url("https://cdnjs.cloudflare.com/ajax/libs/firacode/6.2.0/woff/FiraCode-Bold.woff") format("woff");
        font-style: bold;
        font-weight: 700;
    }

    .terminal-56331836-matrix {
        font-family: Fira Code, monospace;
        font-size: 20px;
        line-height: 24.4px;
        font-variant-east-asian: full-width;
    }

    .terminal-56331836-title {
        font-size: 18px;
        font-weight: bold;
        font-family: arial;
    }

    .terminal-56331836-r1 { fill: #c5c8c6 }
.terminal-56331836-r2 { fill: #a0a0a0 }
.terminal-56331836-r3 { fill: #656565 }
.terminal-56331836-r4 { fill: #e0e0e0;font-weight: bold }
.terminal-56331836-r5 { fill: #121212 }
.terminal-56331836-r6 { fill: #e8e8e8;font-weight: bold }
.terminal-56331836-r7 { fill: #b6b6b6;font-weight: bold }
.terminal-56331836-r8 { fill: #9e9e9e;font-weight: bold }
.terminal-56331836-r9 { fill: #3e3e3e }
.terminal-56331836-r10 { fill: #656565;font-weight: bold }
.terminal-56331836-r11 { fill: #e0e0e0 }
.terminal-56331836-r12 { fill: #a0a0a0;font-weight: bold }
.terminal-56331836-r13 { fill: #0d0d0d }
.terminal-56331836-r14 { fill: #9e9e9e }
.terminal-56331836-r15 { fill: #ababab }
    </style>

    <defs>
    <clipPath id="terminal-56331836-clip-terminal">
      <rect x="0" y="0" width="731.0" height="487.0" />
    </clipPath>
    <clipPath id="terminal-56331836-line-0">
    <rect x="0" y="1.5" width="732" height="24.65"/>
            </clipPath>
<clipPath id="terminal-56331836-line-1">
    <rect x="0" y="25.9" width="732" height="24.65"/>
            </clipPath>
<clipPath id="terminal-56331836-line-2">
    <rect x="0" y="50.3" width="732" height="24.65"/>
            </clipPath>
<clipPath id="terminal-56331836-line-3">
    <rect x="0" y="74.7" width="732" height="24.65"/>
            </clipPath>
<clipPath id="terminal-56331836-line-4">
    <rect x="0" y="99.1" width="732" height="24.65"/>
            </clipPath>
<clipPath id="terminal-56331836-line-5">
    <rect x="0" y="123.5" width="732" height="24.65"/>
            </clipPath>
<clipPath id="terminal-56331836-line-6">
    <rect x="0" y="147.9" width="732" height="24.65"/>
            </clipPath>
<clipPath id="terminal-56331836-line-7">
    <rect x="0" y="172.3" width="732" height="24.65"/>
            </clipPath>
<clipPath id="terminal-56331836-line-8">
    <rect x="0" y="196.7" width="732" height="24.65"/>
            </clipPath>
<clipPath id="terminal-56331836-line-9">
    <rect x="0" y="221.1" width="732" height="24.65"/>
            </clipPath>
<clipPath id="terminal-56331836-line-10">
    <rect x="0" y="245.5" width="732" height="24.65"/>
            </clipPath>
<clipPath id="terminal-56331836-line-11">
    <rect x="0" y="269.9" width="732" height="24.65"/>
            </clipPath>
<clipPath id="terminal-56331836-line-12">
    <rect x="0" y="294.3" width="732" height="24.65"/>
            </clipPath>
<clipPath id="terminal-56331836-line-13">
    <rect x="0" y="318.7" width="732" height="24.65"/>
            </clipPath>
<clipPath id="terminal-56331836-line-14">
    <rect x="0" y="343.1" width="732" height="24.65"/>
            </clipPath>
<clipPath id="terminal-56331836-line-15">
    <rect x="0" y="367.5" width="732" height="24.65"/>
            </clipPath>
<clipPath id="terminal-56331836-line-16">
    <rect x="0" y="391.9" width="732" height="24.65"/>
            </clipPath>
<clipPath id="terminal-56331836-line-17">
    <rect x="0" y="416.3" width="732" height="24.65"/>
            </clipPath>
<clipPath id="terminal-56331836-line-18">
    <rect x="0" y="440.7" width="732" height="24.65"/>
            </clipPath>
    </defs>

    <rect fill="#292929" stroke="rgba(255,255,255,0.35)" stroke-width="1" x="1" y="1" width="748" height="536" rx="8"/><text class="terminal-56331836-title" fill="#c5c8c6" text-anchor="middle" x="374" y="27">tldw&#160;chatbook</text>
            <g transform="translate(26,22)">
            <circle cx="0" cy="0" r="7" fill="#ff5f57"/>
            <circle cx="22" cy="0" r="7" fill="#febc2e"/>
            <circle cx="44" cy="0" r="7" fill="#28c840"/>
            </g>
        
    <g transform="translate(9, 41)" clip-path="url(#terminal-56331836-clip-terminal)">
    <rect fill="#121212" x="0" y="1.5" width="12.2" height="24.65" shape-rendering="crispEdges"/><rect fill="#121212" x="12.2" y="1.5" width="12.2" height="24.65" shape-rendering="crispEdges"/><rect fill="#121212" x="24.4" y="1.5" width="12.2" height="24.65" shape-rendering="crispEdges"/><rect fill="#565656" x="36.6" y="1.5" width="195.2" height="24.65" shape-rendering="crispEdges"/><rect fill="#1e1e1e" x="231.8" y="1.5" width="292.8" height="24.65" shape-rendering="crispEdges"/><rect fill="#121212" x="524.6" y="1.5" width="85.4" height="24.65" shape-rendering="crispEdges"/><rect fill="#1e1e1e" x="610" y="1.5" width="12.2" height="24.65" shape-rendering="crispEdges"/><rect fill="#1e1e1e" x="622.2" y="1.5" width="97.6" height="24.65" shape-rendering="crispEdges"/><rect fill="#1e1e1e" x="719.8" y="1.5" width="12.2" height="24.65" shape-rendering="crispEdges"/><rect fill="#121212" x="0" y="25.9" width="12.2" height="24.65" shape-rendering="crispEdges"/><rect fill="#121212" x="12.2" y="25.9" width="12.2" height="24.65" shape-rendering="crispEdges"/><rect fill="#121212" x="24.4" y="25.9" width="12.2" height="24.65" shape-rendering="crispEdges"/><rect fill="#565656" x="36.6" y="25.9" width="12.2" height="24.65" shape-rendering="crispEdges"/><rect fill="#565656" x="48.8" y="25.9" width="12.2" height="24.65" shape-rendering="crispEdges"/><rect fill="#565656" x="61" y="25.9" width="24.4" height="24.65" shape-rendering="crispEdges"/><rect fill="#565656" x="85.4" y="25.9" width="134.2" height="24.65" shape-rendering="crispEdges"/><rect fill="#565656" x="219.6" y="25.9" width="12.2" height="24.65" shape-rendering="crispEdges"/><rect fill="#1e1e1e" x="231.8" y="25.9" width="12.2" height="24.65" shape-rendering="crispEdges"/><rect fill="#1e1e1e" x="244" y="25.9" width="24.4" height="24.65" shape-rendering="crispEdges"/><rect fill="#1e1e1e" x="268.4" y="25.9" width="61" height="24.65" shape-rendering="crispEdges"/><rect fill="#1e1e1e" x="329.4" y="25.9" width="12.2" height="24.65" shape-rendering="crispEdges"/><rect fill="#1e1e1e" x="341.6" y="25.9" width="24.4" height="24.65" shape-rendering="crispEdges"/><rect fill="#1e1e1e" x="366" y="25.9" width="61" height="24.65" shape-rendering="crispEdges"/><rect fill="#1e1e1e" x="427" y="25.9" width="12.2" height="24.65" shape-rendering="crispEdges"/><rect fill="#1e1e1e" x="439.2" y="25.9" width="24.4" height="24.65" shape-rendering="crispEdges"/><rect fill="#1e1e1e" x="463.6" y="25.9" width="61" height="24.65" shape-rendering="crispEdges"/><rect fill="#121212" x="524.6" y="25.9" width="12.2" height="24.65" shape-rendering="crispEdges"/><rect fill="#121212" x="536.8" y="25.9" width="24.4" height="24.65" shape-rendering="crispEdges"/><rect fill="#121212" x="561.2" y="25.9" width="48.8" height="24.65" shape-rendering="crispEdges"/><rect fill="#1e1e1e" x="610" y="25.9" width="12.2" height="24.65" shape-rendering="crispEdges"/><rect fill="#1e1e1e" x="622.2" y="25.9" width="97.6" height="24.65" shape-rendering="crispEdges"/><rect fill="#1e1e1e" x="719.8" y="25.9" width="12.2" height="24.65" shape-rendering="crispEdges"/><rect fill="#121212" x="0" y="50.3" width="732" height="24.65" shape-rendering="crispEdges"/><rect fill="#121212" x="0" y="74.7" width="12.2" height="24.65" shape-rendering="crispEdges"/><rect fill="#121212" x="12.2" y="74.7" width="573.4" height="24.65" shape-rendering="crispEdges"/><rect fill="#121212" x="585.6" y="74.7" width="146.4" height="24.65" shape-rendering="crispEdges"/><rect fill="#2d2d2d" x="0" y="99.1" width="12.2" height="24.65" shape-rendering="crispEdges"/><rect fill="#2d2d2d" x="12.2" y="99.1" width="390.4" height="24.65" shape-rendering="crispEdges"/><rect fill="#2d2d2d" x="402.6" y="99.1" width="329.4" height="24.65" shape-rendering="crispEdges"/><rect fill="#121212" x="0" y="123.5" width="12.2" height="24.65" shape-rendering="crispEdges"/><rect fill="#1e1e1e" x="12.2" y="123.5" width="646.6" height="24.65" shape-rendering="crispEdges"/><rect fill="#121212" x="658.8" y="123.5" width="73.2" height="24.65" shape-rendering="crispEdges"/><rect fill="#121212" x="0" y="147.9" width="12.2" height="24.65" shape-rendering="crispEdges"/><rect fill="#121212" x="12.2" y="147.9" width="707.6" height="24.65" shape-rendering="crispEdges"/><rect fill="#121212" x="719.8" y="147.9" width="12.2" height="24.65" shape-rendering="crispEdges"/><rect fill="#121212" x="0" y="172.3" width="12.2" height="24.65" shape-rendering="crispEdges"/><rect fill="#121212" x="12.2" y="172.3" width="134.2" height="24.65" shape-rendering="crispEdges"/><rect fill="#121212" x="146.4" y="172.3" width="585.6" height="24.65" shape-rendering="crispEdges"/><rect fill="#121212" x="0" y="196.7" width="12.2" height="24.65" shape-rendering="crispEdges"/><rect fill="#1e1e1e" x="12.2" y="196.7" width="353.8" height="24.65" shape-rendering="crispEdges"/><rect fill="#121212" x="366" y="196.7" width="366" height="24.65" shape-rendering="crispEdges"/><rect fill="#121212" x="0" y="221.1" width="12.2" height="24.65" shape-rendering="crispEdges"/><rect fill="#121212" x="12.2" y="221.1" width="292.8" height="24.65" shape-rendering="crispEdges"/><rect fill="#121212" x="305" y="221.1" width="427" height="24.65" shape-rendering="crispEdges"/><rect fill="#121212" x="0" y="245.5" width="12.2" height="24.65" shape-rendering="crispEdges"/><rect fill="#121212" x="12.2" y="245.5" width="183" height="24.65" shape-rendering="crispEdges"/><rect fill="#121212" x="195.2" y="245.5" width="512.4" height="24.65" shape-rendering="crispEdges"/><rect fill="#656565" x="707.6" y="245.5" width="12.2" height="24.65" shape-rendering="crispEdges"/><rect fill="#121212" x="719.8" y="245.5" width="12.2" height="24.65" shape-rendering="crispEdges"/><rect fill="#121212" x="0" y="269.9" width="12.2" height="24.65" shape-rendering="crispEdges"/><rect fill="#1e1e1e" x="12.2" y="269.9" width="695.4" height="24.65" shape-rendering="crispEdges"/><rect fill="#656565" x="707.6" y="269.9" width="12.2" height="24.65" shape-rendering="crispEdges"/><rect fill="#121212" x="719.8" y="269.9" width="12.2" height="24.65" shape-rendering="crispEdges"/><rect fill="#121212" x="0" y="294.3" width="12.2" height="24.65" shape-rendering="crispEdges"/><rect fill="#1e1e1e" x="12.2" y="294.3" width="12.2" height="24.65" shape-rendering="crispEdges"/><rect fill="#1e1e1e" x="24.4" y="294.3" width="12.2" height="24.65" shape-rendering="crispEdges"/><rect fill="#1e1e1e" x="36.6" y="294.3" width="646.6" height="24.65" shape-rendering="crispEdges"/><rect fill="#1e1e1e" x="683.2" y="294.3" width="12.2" height="24.65" shape-rendering="crispEdges"/><rect fill="#1e1e1e" x="695.4" y="294.3" width="12.2" height="24.65" shape-rendering="crispEdges"/><rect fill="#0d0d0d" x="707.6" y="294.3" width="12.2" height="24.65" shape-rendering="crispEdges"/><rect fill="#121212" x="719.8" y="294.3" width="12.2" height="24.65" shape-rendering="crispEdges"/><rect fill="#121212" x="0" y="318.7" width="12.2" height="24.65" shape-rendering="crispEdges"/><rect fill="#1e1e1e" x="12.2" y="318.7" width="695.4" height="24.65" shape-rendering="crispEdges"/><rect fill="#0d0d0d" x="707.6" y="318.7" width="12.2" height="24.65" shape-rendering="crispEdges"/><rect fill="#121212" x="719.8" y="318.7" width="12.2" height="24.65" shape-rendering="crispEdges"/><rect fill="#121212" x="0" y="343.1" width="707.6" height="24.65" shape-rendering="crispEdges"/><rect fill="#0d0d0d" x="707.6" y="343.1" width="12.2" height="24.65" shape-rendering="crispEdges"/><rect fill="#121212" x="719.8" y="343.1" width="12.2" height="24.65" shape-rendering="crispEdges"/><rect fill="#121212" x="0" y="367.5" width="707.6" height="24.65" shape-rendering="crispEdges"/><rect fill="#0d0d0d" x="707.6" y="367.5" width="12.2" height="24.65" shape-rendering="crispEdges"/><rect fill="#121212" x="719.8" y="367.5" width="12.2" height="24.65" shape-rendering="crispEdges"/><rect fill="#121212" x="0" y="391.9" width="12.2" height="24.65" shape-rendering="crispEdges"/><rect fill="#1e1e1e" x="12.2" y="391.9" width="85.4" height="24.65" shape-rendering="crispEdges"/><rect fill="#1e1e1e" x="97.6" y="391.9" width="524.6" height="24.65" shape-rendering="crispEdges"/><rect fill="#1e1e1e" x="622.2" y="391.9" width="85.4" height="24.65" shape-rendering="crispEdges"/><rect fill="#0d0d0d" x="707.6" y="391.9" width="12.2" height="24.65" shape-rendering="crispEdges"/><rect fill="#121212" x="719.8" y="391.9" width="12.2" height="24.65" shape-rendering="crispEdges"/><rect fill="#121212" x="0" y="416.3" width="12.2" height="24.65" shape-rendering="crispEdges"/><rect fill="#121212" x="12.2" y="416.3" width="244" height="24.65" shape-rendering="crispEdges"/><rect fill="#121212" x="256.2" y="416.3" width="475.8" height="24.65" shape-rendering="crispEdges"/><rect fill="#121212" x="0" y="440.7" width="12.2" height="24.65" shape-rendering="crispEdges"/><rect fill="#0d0d0d" x="12.2" y="440.7" width="207.4" height="24.65" shape-rendering="crispEdges"/><rect fill="#121212" x="219.6" y="440.7" width="329.4" height="24.65" shape-rendering="crispEdges"/><rect fill="#121212" x="549" y="440.7" width="183" height="24.65" shape-rendering="crispEdges"/><rect fill="#2f2f2f" x="0" y="465.1" width="24.4" height="24.65" shape-rendering="crispEdges"/><rect fill="#2f2f2f" x="24.4" y="465.1" width="305" height="24.65" shape-rendering="crispEdges"/><rect fill="#2f2f2f" x="329.4" y="465.1" width="12.2" height="24.65" shape-rendering="crispEdges"/><rect fill="#2f2f2f" x="341.6" y="465.1" width="0" height="24.65" shape-rendering="crispEdges"/><rect fill="#2f2f2f" x="341.6" y="465.1" width="390.4" height="24.65" shape-rendering="crispEdges"/>
    <g class="terminal-56331836-matrix">
    <text class="terminal-56331836-r3" x="36.6" y="20" textLength="195.2" clip-path="url(#terminal-56331836-line-0)">╭──────────────╮</text><text class="terminal-56331836-r1" x="732" y="20" textLength="12.2" clip-path="url(#terminal-56331836-line-0)">
</text><text class="terminal-56331836-r2" x="12.2" y="44.4" textLength="12.2" clip-path="url(#terminal-56331836-line-1)">‹</text><text class="terminal-56331836-r3" x="36.6" y="44.4" textLength="12.2" clip-path="url(#terminal-56331836-line-1)">│</text><text class="terminal-56331836-r7" x="61" y="44.4" textLength="24.4" clip-path="url(#terminal-56331836-line-1)">⌃8</text><text class="terminal-56331836-r6" x="85.4" y="44.4" textLength="134.2" clip-path="url(#terminal-56331836-line-1)">&#160;Workflows&#160;</text><text class="terminal-56331836-r3" x="219.6" y="44.4" textLength="12.2" clip-path="url(#terminal-56331836-line-1)">│</text><text class="terminal-56331836-r8" x="244" y="44.4" textLength="24.4" clip-path="url(#terminal-56331836-line-1)">⌃9</text><text class="terminal-56331836-r4" x="268.4" y="44.4" textLength="61" clip-path="url(#terminal-56331836-line-1)">&#160;MCP&#160;</text><text class="terminal-56331836-r8" x="341.6" y="44.4" textLength="24.4" clip-path="url(#terminal-56331836-line-1)">⌃0</text><text class="terminal-56331836-r4" x="366" y="44.4" textLength="61" clip-path="url(#terminal-56331836-line-1)">&#160;ACP&#160;</text><text class="terminal-56331836-r8" x="439.2" y="44.4" textLength="24.4" clip-path="url(#terminal-56331836-line-1)">F2</text><text class="terminal-56331836-r4" x="463.6" y="44.4" textLength="61" clip-path="url(#terminal-56331836-line-1)">&#160;Lab&#160;</text><text class="terminal-56331836-r5" x="536.8" y="44.4" textLength="24.4" clip-path="url(#terminal-56331836-line-1)">F3</text><text class="terminal-56331836-r5" x="561.2" y="44.4" textLength="48.8" clip-path="url(#terminal-56331836-line-1)">&#160;Log</text><text class="terminal-56331836-r4" x="622.2" y="44.4" textLength="97.6" clip-path="url(#terminal-56331836-line-1)">&#160;More&#160;▾&#160;</text><text class="terminal-56331836-r1" x="732" y="44.4" textLength="12.2" clip-path="url(#terminal-56331836-line-1)">
</text><text class="terminal-56331836-r9" x="0" y="68.8" textLength="732" clip-path="url(#terminal-56331836-line-2)">────────────────────────────────────────────────────────────</text><text class="terminal-56331836-r1" x="732" y="68.8" textLength="12.2" clip-path="url(#terminal-56331836-line-2)">
</text><text class="terminal-56331836-r10" x="12.2" y="93.2" textLength="573.4" clip-path="url(#terminal-56331836-line-3)">Workflows&#160;/&#160;Local&#160;file&#160;to&#160;reviewed&#160;note&#160;·&#160;Local</text><text class="terminal-56331836-r1" x="732" y="93.2" textLength="12.2" clip-path="url(#terminal-56331836-line-3)">
</text><text class="terminal-56331836-r11" x="12.2" y="117.6" textLength="390.4" clip-path="url(#terminal-56331836-line-4)">Saved&#160;revision&#160;·&#160;draft&#160;unchanged</text><text class="terminal-56331836-r1" x="732" y="117.6" textLength="12.2" clip-path="url(#terminal-56331836-line-4)">
</text><text class="terminal-56331836-r4" x="12.2" y="142" textLength="646.6" clip-path="url(#terminal-56331836-line-5)">&#160;Save&#160;revision&#160;&#160;Validate&#160;&#160;Run&#160;&#160;Import&#160;&#160;Export&#160;&#160;More…&#160;</text><text class="terminal-56331836-r1" x="732" y="142" textLength="12.2" clip-path="url(#terminal-56331836-line-5)">
</text><text class="terminal-56331836-r11" x="12.2" y="166.4" textLength="707.6" clip-path="url(#terminal-56331836-line-6)">Run&#160;a&#160;saved&#160;revision&#160;·&#160;session&#160;only&#160;·&#160;keyless&#160;llama.cpp&#160;to</text><text class="terminal-56331836-r1" x="732" y="166.4" textLength="12.2" clip-path="url(#terminal-56331836-line-6)">
</text><text class="terminal-56331836-r11" x="12.2" y="190.8" textLength="134.2" clip-path="url(#terminal-56331836-line-7)">Local&#160;Note.</text><text class="terminal-56331836-r1" x="732" y="190.8" textLength="12.2" clip-path="url(#terminal-56331836-line-7)">
</text><text class="terminal-56331836-r4" x="12.2" y="215.2" textLength="353.8" clip-path="url(#terminal-56331836-line-8)">&#160;Workflow…&#160;&#160;Step&#160;/&#160;Overview…&#160;</text><text class="terminal-56331836-r1" x="732" y="215.2" textLength="12.2" clip-path="url(#terminal-56331836-line-8)">
</text><text class="terminal-56331836-r10" x="12.2" y="239.6" textLength="292.8" clip-path="url(#terminal-56331836-line-9)">Overview&#160;·&#160;ordered&#160;steps</text><text class="terminal-56331836-r1" x="732" y="239.6" textLength="12.2" clip-path="url(#terminal-56331836-line-9)">
</text><text class="terminal-56331836-r12" x="12.2" y="264" textLength="183" clip-path="url(#terminal-56331836-line-10)">Workflow&#160;name*:</text><text class="terminal-56331836-r1" x="732" y="264" textLength="12.2" clip-path="url(#terminal-56331836-line-10)">
</text><text class="terminal-56331836-r3" x="12.2" y="288.4" textLength="695.4" clip-path="url(#terminal-56331836-line-11)">┌───────────────────────────────────────────────────────┐</text><text class="terminal-56331836-r13" x="707.6" y="288.4" textLength="12.2" clip-path="url(#terminal-56331836-line-11)">▂</text><text class="terminal-56331836-r1" x="732" y="288.4" textLength="12.2" clip-path="url(#terminal-56331836-line-11)">
</text><text class="terminal-56331836-r3" x="12.2" y="312.8" textLength="12.2" clip-path="url(#terminal-56331836-line-12)">│</text><text class="terminal-56331836-r11" x="36.6" y="312.8" textLength="646.6" clip-path="url(#terminal-56331836-line-12)">Local&#160;file&#160;to&#160;reviewed&#160;note&#160;&#160;&#160;&#160;&#160;&#160;&#160;&#160;&#160;&#160;&#160;&#160;&#160;&#160;&#160;&#160;&#160;&#160;&#160;&#160;&#160;&#160;&#160;&#160;&#160;&#160;</text><text class="terminal-56331836-r3" x="695.4" y="312.8" textLength="12.2" clip-path="url(#terminal-56331836-line-12)">│</text><text class="terminal-56331836-r1" x="732" y="312.8" textLength="12.2" clip-path="url(#terminal-56331836-line-12)">
</text><text class="terminal-56331836-r3" x="12.2" y="337.2" textLength="695.4" clip-path="url(#terminal-56331836-line-13)">└───────────────────────────────────────────────────────┘</text><text class="terminal-56331836-r1" x="732" y="337.2" textLength="12.2" clip-path="url(#terminal-56331836-line-13)">
</text><text class="terminal-56331836-r1" x="732" y="361.6" textLength="12.2" clip-path="url(#terminal-56331836-line-14)">
</text><text class="terminal-56331836-r1" x="732" y="386" textLength="12.2" clip-path="url(#terminal-56331836-line-15)">
</text><text class="terminal-56331836-r4" x="97.6" y="410.4" textLength="524.6" clip-path="url(#terminal-56331836-line-16)">&#160;01&#160;&#160;Read&#160;a&#160;local&#160;text&#160;file&#160;(media_ingest)&#160;</text><text class="terminal-56331836-r1" x="732" y="410.4" textLength="12.2" clip-path="url(#terminal-56331836-line-16)">
</text><text class="terminal-56331836-r2" x="12.2" y="434.8" textLength="244" clip-path="url(#terminal-56331836-line-17)">Scroll&#160;form&#160;for&#160;more</text><text class="terminal-56331836-r1" x="732" y="434.8" textLength="12.2" clip-path="url(#terminal-56331836-line-17)">
</text><text class="terminal-56331836-r14" x="12.2" y="459.2" textLength="207.4" clip-path="url(#terminal-56331836-line-18)">&#160;Open&#160;in&#160;Console&#160;</text><text class="terminal-56331836-r11" x="219.6" y="459.2" textLength="329.4" clip-path="url(#terminal-56331836-line-18)">No&#160;existing&#160;Console&#160;handoff</text><text class="terminal-56331836-r1" x="732" y="459.2" textLength="12.2" clip-path="url(#terminal-56331836-line-18)">
</text><text class="terminal-56331836-r15" x="24.4" y="483.6" textLength="305" clip-path="url(#terminal-56331836-line-19)">F1&#160;·&#160;F6&#160;·&#160;Ctrl+P&#160;·&#160;Ctrl+Q</text>
    </g>
    </g>
</svg>
