<?xml version="1.0" encoding="UTF-8"?>
<svg xmlns="http://www.w3.org/2000/svg" width="412" height="3410" viewBox="0 0 412 3410">

        <style>
            .widget-rect { stroke: #333; stroke-width: 1; }
            .widget-text { font-family: Arial, sans-serif; font-size: 12px; fill: #333; }
            .widget-id { font-size: 10px; fill: #666; }
            .widget-class { font-size: 10px; fill: #999; font-style: italic; }
            .container-rect { stroke-width: 2; stroke-dasharray: 5,5; }
        </style>
        
<rect x="20" y="20" width="180" height="40" fill="#e0f2f1" class="widget-rect container-rect" rx="5" />
<text x="30" y="40" class="widget-text">VerticalScroll</text>
<text x="190" y="40" class="widget-class" text-anchor="end">.ingest-form-scrollable</text>
<rect x="50" y="70" width="194" height="40" fill="#f5f5f5" class="widget-rect" rx="5" />
<text x="60" y="90" class="widget-text">Static</text>
<text x="234" y="90" class="widget-class" text-anchor="end">.sidebar-title</text>
<text x="147.0" y="105" class="widget-id" text-anchor="middle">"Local Video Processing"</text>
<rect x="50" y="120" width="250" height="40" fill="#f5f5f5" class="widget-rect" rx="5" />
<text x="60" y="140" class="widget-text">Static</text>
<text x="290" y="140" class="widget-class" text-anchor="end">.sidebar-title</text>
<text x="175.0" y="155" class="widget-id" text-anchor="middle">"Media Details &amp; Processing Opt..."</text>
<rect x="50" y="170" width="250" height="40" fill="#eeeeee" class="widget-rect" rx="5" />
<text x="60" y="190" class="widget-text">Label</text>
<text x="175.0" y="205" class="widget-id" text-anchor="middle">"Media URLs (one per line, e.g...."</text>
<rect x="50" y="220" width="152" height="40" fill="#81c784" class="widget-rect" rx="5" />
<text x="60" y="240" class="widget-text">TextArea</text>
<text x="60" y="255" class="widget-id">#local-urls-video</text>
<text x="192" y="240" class="widget-class" text-anchor="end">.ingest-textarea-small</text>
<rect x="50" y="270" width="299" height="40" fill="#90caf9" class="widget-rect" rx="5" />
<text x="60" y="290" class="widget-text">Button</text>
<text x="60" y="305" class="widget-id">#local-browse-local-files-button-video</text>
<text x="199.5" y="305" class="widget-id" text-anchor="middle">"Browse Local Files..."</text>
<rect x="50" y="320" width="187" height="40" fill="#eeeeee" class="widget-rect" rx="5" />
<text x="60" y="340" class="widget-text">Label</text>
<text x="227" y="340" class="widget-class" text-anchor="end">.ingest-label</text>
<text x="143.5" y="355" class="widget-id" text-anchor="middle">"Selected Local Files:"</text>
<rect x="50" y="370" width="299" height="40" fill="#ffb74d" class="widget-rect" rx="5" />
<text x="60" y="390" class="widget-text">ListView</text>
<text x="60" y="405" class="widget-id">#local-selected-local-files-list-video</text>
<text x="339" y="390" class="widget-class" text-anchor="end">.ingest-selected-files-list</text>
<rect x="50" y="420" width="180" height="40" fill="#e3f2fd" class="widget-rect container-rect" rx="5" />
<text x="60" y="440" class="widget-text">Horizontal</text>
<text x="220" y="440" class="widget-class" text-anchor="end">.title-author-row</text>
<rect x="80" y="470" width="180" height="40" fill="#e8f5e9" class="widget-rect container-rect" rx="5" />
<text x="90" y="490" class="widget-text">Vertical</text>
<text x="250" y="490" class="widget-class" text-anchor="end">.ingest-form-col</text>
<rect x="110" y="520" width="159" height="40" fill="#eeeeee" class="widget-rect" rx="5" />
<text x="120" y="540" class="widget-text">Label</text>
<text x="189.5" y="555" class="widget-id" text-anchor="middle">"Title (Optional):"</text>
<rect x="110" y="570" width="159" height="40" fill="#a5d6a7" class="widget-rect" rx="5" />
<text x="120" y="590" class="widget-text">Input</text>
<text x="120" y="605" class="widget-id">#local-title-video</text>
<line x1="90" y1="510" x2="90" y2="510" stroke="#999" stroke-width="1" stroke-dasharray="2,2" />
<rect x="80" y="620" width="180" height="40" fill="#e8f5e9" class="widget-rect container-rect" rx="5" />
<text x="90" y="640" class="widget-text">Vertical</text>
<text x="250" y="640" class="widget-class" text-anchor="end">.ingest-form-col</text>
<rect x="110" y="670" width="166" height="40" fill="#eeeeee" class="widget-rect" rx="5" />
<text x="120" y="690" class="widget-text">Label</text>
<text x="193.0" y="705" class="widget-id" text-anchor="middle">"Author (Optional):"</text>
<rect x="110" y="720" width="166" height="40" fill="#a5d6a7" class="widget-rect" rx="5" />
<text x="120" y="740" class="widget-text">Input</text>
<text x="120" y="755" class="widget-id">#local-author-video</text>
<line x1="90" y1="660" x2="90" y2="660" stroke="#999" stroke-width="1" stroke-dasharray="2,2" />
<line x1="60" y1="460" x2="60" y2="460" stroke="#999" stroke-width="1" stroke-dasharray="2,2" />
<rect x="50" y="770" width="229" height="40" fill="#eeeeee" class="widget-rect" rx="5" />
<text x="60" y="790" class="widget-text">Label</text>
<text x="164.5" y="805" class="widget-id" text-anchor="middle">"Keywords (comma-separated):"</text>
<rect x="50" y="820" width="180" height="40" fill="#81c784" class="widget-rect" rx="5" />
<text x="60" y="840" class="widget-text">TextArea</text>
<text x="60" y="855" class="widget-id">#local-keywords-video</text>
<text x="220" y="840" class="widget-class" text-anchor="end">.ingest-textarea-small</text>
<rect x="50" y="870" width="208" height="40" fill="#f5f5f5" class="widget-rect" rx="5" />
<text x="60" y="890" class="widget-text">Static</text>
<text x="248" y="890" class="widget-class" text-anchor="end">.sidebar-title</text>
<text x="154.0" y="905" class="widget-id" text-anchor="middle">"Video Processing Options"</text>
<rect x="50" y="920" width="250" height="40" fill="#ba68c8" class="widget-rect" rx="5" />
<text x="60" y="940" class="widget-text">Checkbox</text>
<text x="60" y="955" class="widget-id">#local-extract-audio-only-video</text>
<text x="175.0" y="955" class="widget-id" text-anchor="middle">"Extract Audio Only (faster, no..."</text>
<rect x="50" y="970" width="236" height="40" fill="#ba68c8" class="widget-rect" rx="5" />
<text x="60" y="990" class="widget-text">Checkbox</text>
<text x="60" y="1005" class="widget-id">#local-download-video-video</text>
<text x="168.0" y="1005" class="widget-id" text-anchor="middle">"Download Full Video (if URL)"</text>
<rect x="50" y="1020" width="180" height="40" fill="#e3f2fd" class="widget-rect container-rect" rx="5" />
<text x="60" y="1040" class="widget-text">Horizontal</text>
<text x="220" y="1040" class="widget-class" text-anchor="end">.ingest-form-row</text>
<rect x="80" y="1070" width="180" height="40" fill="#e8f5e9" class="widget-rect container-rect" rx="5" />
<text x="90" y="1090" class="widget-text">Vertical</text>
<text x="250" y="1090" class="widget-class" text-anchor="end">.ingest-form-col</text>
<rect x="110" y="1120" width="250" height="40" fill="#eeeeee" class="widget-rect" rx="5" />
<text x="120" y="1140" class="widget-text">Label</text>
<text x="235.0" y="1155" class="widget-id" text-anchor="middle">"Start Time (HH:MM:SS or second..."</text>
<rect x="110" y="1170" width="194" height="40" fill="#a5d6a7" class="widget-rect" rx="5" />
<text x="120" y="1190" class="widget-text">Input</text>
<text x="120" y="1205" class="widget-id">#local-start-time-video</text>
<line x1="90" y1="1110" x2="90" y2="1110" stroke="#999" stroke-width="1" stroke-dasharray="2,2" />
<rect x="80" y="1220" width="180" height="40" fill="#e8f5e9" class="widget-rect container-rect" rx="5" />
<text x="90" y="1240" class="widget-text">Vertical</text>
<text x="250" y="1240" class="widget-class" text-anchor="end">.ingest-form-col</text>
<rect x="110" y="1270" width="250" height="40" fill="#eeeeee" class="widget-rect" rx="5" />
<text x="120" y="1290" class="widget-text">Label</text>
<text x="235.0" y="1305" class="widget-id" text-anchor="middle">"End Time (HH:MM:SS or seconds)..."</text>
<rect x="110" y="1320" width="180" height="40" fill="#a5d6a7" class="widget-rect" rx="5" />
<text x="120" y="1340" class="widget-text">Input</text>
<text x="120" y="1355" class="widget-id">#local-end-time-video</text>
<line x1="90" y1="1260" x2="90" y2="1260" stroke="#999" stroke-width="1" stroke-dasharray="2,2" />
<line x1="60" y1="1060" x2="60" y2="1060" stroke="#999" stroke-width="1" stroke-dasharray="2,2" />
<rect x="50" y="1370" width="187" height="40" fill="#f5f5f5" class="widget-rect" rx="5" />
<text x="60" y="1390" class="widget-text">Static</text>
<text x="227" y="1390" class="widget-class" text-anchor="end">.sidebar-title</text>
<text x="143.5" y="1405" class="widget-id" text-anchor="middle">"Transcription Options"</text>
<rect x="50" y="1420" width="229" height="40" fill="#eeeeee" class="widget-rect" rx="5" />
<text x="60" y="1440" class="widget-text">Label</text>
<text x="164.5" y="1455" class="widget-id" text-anchor="middle">"Source Language (ISO code):"</text>
<rect x="50" y="1470" width="278" height="40" fill="#a5d6a7" class="widget-rect" rx="5" />
<text x="60" y="1490" class="widget-text">Input</text>
<text x="60" y="1505" class="widget-id">#local-transcription-language-video</text>
<rect x="50" y="1520" width="301" height="40" fill="#f3e5f5" class="widget-rect container-rect" rx="5" />
<text x="60" y="1540" class="widget-text">Container</text>
<text x="60" y="1555" class="widget-id">#local-translation-container-video</text>
<text x="341" y="1540" class="widget-class" text-anchor="end">.hidden</text>
<rect x="80" y="1570" width="250" height="40" fill="#eeeeee" class="widget-rect" rx="5" />
<text x="90" y="1590" class="widget-text">Label</text>
<text x="205.0" y="1605" class="widget-id" text-anchor="middle">"Target Language for Translatio..."</text>
<rect x="80" y="1620" width="250" height="40" fill="#a5d6a7" class="widget-rect" rx="5" />
<text x="90" y="1640" class="widget-text">Input</text>
<text x="90" y="1655" class="widget-id">#local-translation-target-video</text>
<line x1="60" y1="1560" x2="60" y2="1560" stroke="#999" stroke-width="1" stroke-dasharray="2,2" />
<rect x="50" y="1670" width="250" height="40" fill="#ba68c8" class="widget-rect" rx="5" />
<text x="60" y="1690" class="widget-text">Checkbox</text>
<text x="60" y="1705" class="widget-id">#local-vad-filter-video</text>
<text x="175.0" y="1705" class="widget-id" text-anchor="middle">"Enable Voice Activity Detectio..."</text>
<rect x="50" y="1720" width="222" height="40" fill="#ba68c8" class="widget-rect" rx="5" />
<text x="60" y="1740" class="widget-text">Checkbox</text>
<text x="60" y="1755" class="widget-id">#local-diarize-video</text>
<text x="161.0" y="1755" class="widget-id" text-anchor="middle">"Enable Speaker Diarization"</text>
<rect x="50" y="1770" width="194" height="40" fill="#ba68c8" class="widget-rect" rx="5" />
<text x="60" y="1790" class="widget-text">Checkbox</text>
<text x="60" y="1805" class="widget-id">#local-timestamps-video</text>
<text x="147.0" y="1805" class="widget-id" text-anchor="middle">"Include Timestamps"</text>
<rect x="50" y="1820" width="250" height="40" fill="#ba68c8" class="widget-rect" rx="5" />
<text x="60" y="1840" class="widget-text">Checkbox</text>
<text x="60" y="1855" class="widget-id">#local-perform-analysis-video</text>
<text x="175.0" y="1855" class="widget-id" text-anchor="middle">"Perform Analysis (e.g., Summar..."</text>
<rect x="50" y="1870" width="229" height="40" fill="#e0e0e0" class="widget-rect" rx="5" />
<text x="60" y="1890" class="widget-text">PromptSelector</text>
<text x="60" y="1905" class="widget-id">#local-prompt-selector-video</text>
<rect x="50" y="1920" width="250" height="40" fill="#eeeeee" class="widget-rect" rx="5" />
<text x="60" y="1940" class="widget-text">Label</text>
<text x="175.0" y="1955" class="widget-id" text-anchor="middle">"Analysis API Provider (if anal..."</text>
<rect x="50" y="1970" width="243" height="40" fill="#4fc3f7" class="widget-rect" rx="5" />
<text x="60" y="1990" class="widget-text">Select</text>
<text x="60" y="2005" class="widget-id">#local-analysis-api-name-video</text>
<rect x="50" y="2020" width="243" height="40" fill="#eeeeee" class="widget-rect" rx="5" />
<text x="60" y="2040" class="widget-text">Label</text>
<text x="171.5" y="2055" class="widget-id" text-anchor="middle">"Analysis API Key (if needed):"</text>
<rect x="50" y="2070" width="236" height="40" fill="#a5d6a7" class="widget-rect" rx="5" />
<text x="60" y="2090" class="widget-text">Input</text>
<text x="60" y="2105" class="widget-id">#local-analysis-api-key-video</text>
<rect x="50" y="2120" width="294" height="40" fill="#fff3e0" class="widget-rect container-rect" rx="5" />
<text x="60" y="2140" class="widget-text">Collapsible</text>
<text x="60" y="2155" class="widget-id">#local-chunking-collapsible-video</text>
<rect x="80" y="2170" width="236" height="40" fill="#ba68c8" class="widget-rect" rx="5" />
<text x="90" y="2190" class="widget-text">Checkbox</text>
<text x="90" y="2205" class="widget-id">#local-perform-chunking-video</text>
<text x="198.0" y="2205" class="widget-id" text-anchor="middle">"Perform Chunking"</text>
<rect x="80" y="2220" width="152" height="40" fill="#eeeeee" class="widget-rect" rx="5" />
<text x="90" y="2240" class="widget-text">Label</text>
<text x="156.0" y="2255" class="widget-id" text-anchor="middle">"Chunking Method:"</text>
<rect x="80" y="2270" width="208" height="40" fill="#4fc3f7" class="widget-rect" rx="5" />
<text x="90" y="2290" class="widget-text">Select</text>
<text x="90" y="2305" class="widget-id">#local-chunk-method-video</text>
<rect x="80" y="2320" width="180" height="40" fill="#e3f2fd" class="widget-rect container-rect" rx="5" />
<text x="90" y="2340" class="widget-text">Horizontal</text>
<text x="250" y="2340" class="widget-class" text-anchor="end">.ingest-form-row</text>
<rect x="110" y="2370" width="180" height="40" fill="#e8f5e9" class="widget-rect container-rect" rx="5" />
<text x="120" y="2390" class="widget-text">Vertical</text>
<text x="280" y="2390" class="widget-class" text-anchor="end">.ingest-form-col</text>
<rect x="140" y="2420" width="150" height="40" fill="#eeeeee" class="widget-rect" rx="5" />
<text x="150" y="2440" class="widget-text">Label</text>
<text x="215.0" y="2455" class="widget-id" text-anchor="middle">"Chunk Size:"</text>
<rect x="140" y="2470" width="194" height="40" fill="#a5d6a7" class="widget-rect" rx="5" />
<text x="150" y="2490" class="widget-text">Input</text>
<text x="150" y="2505" class="widget-id">#local-chunk-size-video</text>
<line x1="120" y1="2410" x2="120" y2="2410" stroke="#999" stroke-width="1" stroke-dasharray="2,2" />
<rect x="110" y="2520" width="180" height="40" fill="#e8f5e9" class="widget-rect container-rect" rx="5" />
<text x="120" y="2540" class="widget-text">Vertical</text>
<text x="280" y="2540" class="widget-class" text-anchor="end">.ingest-form-col</text>
<rect x="140" y="2570" width="150" height="40" fill="#eeeeee" class="widget-rect" rx="5" />
<text x="150" y="2590" class="widget-text">Label</text>
<text x="215.0" y="2605" class="widget-id" text-anchor="middle">"Chunk Overlap:"</text>
<rect x="140" y="2620" width="215" height="40" fill="#a5d6a7" class="widget-rect" rx="5" />
<text x="150" y="2640" class="widget-text">Input</text>
<text x="150" y="2655" class="widget-id">#local-chunk-overlap-video</text>
<line x1="120" y1="2560" x2="120" y2="2560" stroke="#999" stroke-width="1" stroke-dasharray="2,2" />
<line x1="90" y1="2360" x2="90" y2="2360" stroke="#999" stroke-width="1" stroke-dasharray="2,2" />
<rect x="80" y="2670" width="271" height="40" fill="#ba68c8" class="widget-rect" rx="5" />
<text x="90" y="2690" class="widget-text">Checkbox</text>
<text x="90" y="2705" class="widget-id">#local-use-adaptive-chunking-video</text>
<text x="215.5" y="2705" class="widget-id" text-anchor="middle">"Use Adaptive Chunking"</text>
<rect x="80" y="2720" width="292" height="40" fill="#ba68c8" class="widget-rect" rx="5" />
<text x="90" y="2740" class="widget-text">Checkbox</text>
<text x="90" y="2755" class="widget-id">#local-use-multi-level-chunking-video</text>
<text x="226.0" y="2755" class="widget-id" text-anchor="middle">"Use Multi-level Chunking"</text>
<rect x="80" y="2770" width="250" height="40" fill="#eeeeee" class="widget-rect" rx="5" />
<text x="90" y="2790" class="widget-text">Label</text>
<text x="205.0" y="2805" class="widget-id" text-anchor="middle">"Chunk Language (for semantic c..."</text>
<rect x="80" y="2820" width="222" height="40" fill="#a5d6a7" class="widget-rect" rx="5" />
<text x="90" y="2840" class="widget-text">Input</text>
<text x="90" y="2855" class="widget-id">#local-chunk-language-video</text>
<rect x="80" y="2870" width="271" height="40" fill="#ba68c8" class="widget-rect" rx="5" />
<text x="90" y="2890" class="widget-text">Checkbox</text>
<text x="90" y="2905" class="widget-id">#local-summarize-recursively-video</text>
<text x="215.5" y="2905" class="widget-id" text-anchor="middle">"Summarize Recursively"</text>
<line x1="60" y1="2160" x2="60" y2="2160" stroke="#999" stroke-width="1" stroke-dasharray="2,2" />
<rect x="50" y="2920" width="180" height="40" fill="#fff3e0" class="widget-rect container-rect" rx="5" />
<text x="60" y="2940" class="widget-text">Collapsible</text>
<rect x="80" y="2970" width="201" height="40" fill="#ba68c8" class="widget-rect" rx="5" />
<text x="90" y="2990" class="widget-text">Checkbox</text>
<text x="90" y="3005" class="widget-id">#local-use-cookies-video</text>
<text x="180.5" y="3005" class="widget-id" text-anchor="middle">"Use Cookies"</text>
<rect x="80" y="3020" width="194" height="40" fill="#eeeeee" class="widget-rect" rx="5" />
<text x="90" y="3040" class="widget-text">Label</text>
<text x="177.0" y="3055" class="widget-id" text-anchor="middle">"Cookies (JSON format):"</text>
<rect x="80" y="3070" width="173" height="40" fill="#81c784" class="widget-rect" rx="5" />
<text x="90" y="3090" class="widget-text">TextArea</text>
<text x="90" y="3105" class="widget-id">#local-cookies-video</text>
<text x="243" y="3090" class="widget-class" text-anchor="end">.ingest-textarea-small</text>
<line x1="60" y1="2960" x2="60" y2="2960" stroke="#999" stroke-width="1" stroke-dasharray="2,2" />
<rect x="50" y="3120" width="215" height="40" fill="#ba68c8" class="widget-rect" rx="5" />
<text x="60" y="3140" class="widget-text">Checkbox</text>
<text x="60" y="3155" class="widget-id">#local-keep-original-video</text>
<text x="157.5" y="3155" class="widget-id" text-anchor="middle">"Keep Original Video Files"</text>
<rect x="50" y="3170" width="257" height="40" fill="#ba68c8" class="widget-rect" rx="5" />
<text x="60" y="3190" class="widget-text">Checkbox</text>
<text x="60" y="3205" class="widget-id">#local-overwrite-if-exists-video</text>
<text x="178.5" y="3205" class="widget-id" text-anchor="middle">"Overwrite if exists in databas..."</text>
<rect x="50" y="3220" width="166" height="40" fill="#90caf9" class="widget-rect" rx="5" />
<text x="60" y="3240" class="widget-text">Button</text>
<text x="60" y="3255" class="widget-id">#local-submit-video</text>
<text x="133.0" y="3255" class="widget-id" text-anchor="middle">"Submit"</text>
<rect x="50" y="3270" width="243" height="40" fill="#ff8a65" class="widget-rect" rx="5" />
<text x="60" y="3290" class="widget-text">LoadingIndicator</text>
<text x="60" y="3305" class="widget-id">#local-loading-indicator-video</text>
<text x="283" y="3290" class="widget-class" text-anchor="end">.hidden</text>
<rect x="50" y="3320" width="166" height="40" fill="#81c784" class="widget-rect" rx="5" />
<text x="60" y="3340" class="widget-text">TextArea</text>
<text x="60" y="3355" class="widget-id">#local-status-video</text>
<text x="206" y="3340" class="widget-class" text-anchor="end">.ingest-status-area</text>
<line x1="30" y1="60" x2="30" y2="60" stroke="#999" stroke-width="1" stroke-dasharray="2,2" />
</svg>