<svg class="rich-terminal" viewBox="0 0 653 538.0" xmlns="http://www.w3.org/2000/svg">
    <!-- Generated with Rich https://www.textualize.io -->
    <style>

    @font-face {
        font-family: "Fira Code";
        src: local("FiraCode-Regular"),
                url("https://cdnjs.cloudflare.com/ajax/libs/firacode/6.2.0/woff2/FiraCode-Regular.woff2") format("woff2"),
                url("https://cdnjs.cloudflare.com/ajax/libs/firacode/6.2.0/woff/FiraCode-Regular.woff") format("woff");
        font-style: normal;
        font-weight: 400;
    }
    @font-face {
        font-family: "Fira Code";
        src: local("FiraCode-Bold"),
                url("https://cdnjs.cloudflare.com/ajax/libs/firacode/6.2.0/woff2/FiraCode-Bold.woff2") format("woff2"),
                url("https://cdnjs.cloudflare.com/ajax/libs/firacode/6.2.0/woff/FiraCode-Bold.woff") format("woff");
        font-style: bold;
        font-weight: 700;
    }

    .terminal-2200261457-matrix {
        font-family: Fira Code, monospace;
        font-size: 20px;
        line-height: 24.4px;
        font-variant-east-asian: full-width;
    }

    .terminal-2200261457-title {
        font-size: 18px;
        font-weight: bold;
        font-family: arial;
    }

    .terminal-2200261457-r1 { fill: #e0e0e0 }
.terminal-2200261457-r2 { fill: #b0b0b0 }
.terminal-2200261457-r3 { fill: #c5c8c6 }
.terminal-2200261457-r4 { fill: #2d2d2d }
.terminal-2200261457-r5 { fill: #272727;font-weight: bold }
.terminal-2200261457-r6 { fill: #0d0d0d }
.terminal-2200261457-r7 { fill: #e0e0e0;font-weight: bold }
    </style>

    <defs>
    <clipPath id="terminal-2200261457-clip-terminal">
      <rect x="0" y="0" width="633.4" height="487.0" />
    </clipPath>
    <clipPath id="terminal-2200261457-line-0">
    <rect x="0" y="1.5" width="634.4" height="24.65"/>
            </clipPath>
<clipPath id="terminal-2200261457-line-1">
    <rect x="0" y="25.9" width="634.4" height="24.65"/>
            </clipPath>
<clipPath id="terminal-2200261457-line-2">
    <rect x="0" y="50.3" width="634.4" height="24.65"/>
            </clipPath>
<clipPath id="terminal-2200261457-line-3">
    <rect x="0" y="74.7" width="634.4" height="24.65"/>
            </clipPath>
<clipPath id="terminal-2200261457-line-4">
    <rect x="0" y="99.1" width="634.4" height="24.65"/>
            </clipPath>
<clipPath id="terminal-2200261457-line-5">
    <rect x="0" y="123.5" width="634.4" height="24.65"/>
            </clipPath>
<clipPath id="terminal-2200261457-line-6">
    <rect x="0" y="147.9" width="634.4" height="24.65"/>
            </clipPath>
<clipPath id="terminal-2200261457-line-7">
    <rect x="0" y="172.3" width="634.4" height="24.65"/>
            </clipPath>
<clipPath id="terminal-2200261457-line-8">
    <rect x="0" y="196.7" width="634.4" height="24.65"/>
            </clipPath>
<clipPath id="terminal-2200261457-line-9">
    <rect x="0" y="221.1" width="634.4" height="24.65"/>
            </clipPath>
<clipPath id="terminal-2200261457-line-10">
    <rect x="0" y="245.5" width="634.4" height="24.65"/>
            </clipPath>
<clipPath id="terminal-2200261457-line-11">
    <rect x="0" y="269.9" width="634.4" height="24.65"/>
            </clipPath>
<clipPath id="terminal-2200261457-line-12">
    <rect x="0" y="294.3" width="634.4" height="24.65"/>
            </clipPath>
<clipPath id="terminal-2200261457-line-13">
    <rect x="0" y="318.7" width="634.4" height="24.65"/>
            </clipPath>
<clipPath id="terminal-2200261457-line-14">
    <rect x="0" y="343.1" width="634.4" height="24.65"/>
            </clipPath>
<clipPath id="terminal-2200261457-line-15">
    <rect x="0" y="367.5" width="634.4" height="24.65"/>
            </clipPath>
<clipPath id="terminal-2200261457-line-16">
    <rect x="0" y="391.9" width="634.4" height="24.65"/>
            </clipPath>
<clipPath id="terminal-2200261457-line-17">
    <rect x="0" y="416.3" width="634.4" height="24.65"/>
            </clipPath>
<clipPath id="terminal-2200261457-line-18">
    <rect x="0" y="440.7" width="634.4" height="24.65"/>
            </clipPath>
    </defs>

    <rect fill="#292929" stroke="rgba(255,255,255,0.35)" stroke-width="1" x="1" y="1" width="651" height="536" rx="8"/><text class="terminal-2200261457-title" fill="#c5c8c6" text-anchor="middle" x="325" y="27">App</text>
            <g transform="translate(26,22)">
            <circle cx="0" cy="0" r="7" fill="#ff5f57"/>
            <circle cx="22" cy="0" r="7" fill="#febc2e"/>
            <circle cx="44" cy="0" r="7" fill="#28c840"/>
            </g>

    <g transform="translate(9, 41)" clip-path="url(#terminal-2200261457-clip-terminal)">
    <rect fill="#121212" x="0" y="1.5" width="12.2" height="24.65" shape-rendering="crispEdges"/><rect fill="#1e1e1e" x="12.2" y="1.5" width="12.2" height="24.65" shape-rendering="crispEdges"/><rect fill="#1e1e1e" x="24.4" y="1.5" width="573.4" height="24.65" shape-rendering="crispEdges"/><rect fill="#1e1e1e" x="597.8" y="1.5" width="12.2" height="24.65" shape-rendering="crispEdges"/><rect fill="#121212" x="610" y="1.5" width="24.4" height="24.65" shape-rendering="crispEdges"/><rect fill="#121212" x="0" y="25.9" width="12.2" height="24.65" shape-rendering="crispEdges"/><rect fill="#1e1e1e" x="12.2" y="25.9" width="12.2" height="24.65" shape-rendering="crispEdges"/><rect fill="#1e1e1e" x="24.4" y="25.9" width="573.4" height="24.65" shape-rendering="crispEdges"/><rect fill="#1e1e1e" x="597.8" y="25.9" width="12.2" height="24.65" shape-rendering="crispEdges"/><rect fill="#121212" x="610" y="25.9" width="24.4" height="24.65" shape-rendering="crispEdges"/><rect fill="#121212" x="0" y="50.3" width="12.2" height="24.65" shape-rendering="crispEdges"/><rect fill="#1e1e1e" x="12.2" y="50.3" width="12.2" height="24.65" shape-rendering="crispEdges"/><rect fill="#1e1e1e" x="24.4" y="50.3" width="24.4" height="24.65" shape-rendering="crispEdges"/><rect fill="#1e1e1e" x="48.8" y="50.3" width="451.4" height="24.65" shape-rendering="crispEdges"/><rect fill="#1e1e1e" x="500.2" y="50.3" width="73.2" height="24.65" shape-rendering="crispEdges"/><rect fill="#1e1e1e" x="573.4" y="50.3" width="24.4" height="24.65" shape-rendering="crispEdges"/><rect fill="#1e1e1e" x="597.8" y="50.3" width="12.2" height="24.65" shape-rendering="crispEdges"/><rect fill="#121212" x="610" y="50.3" width="24.4" height="24.65" shape-rendering="crispEdges"/><rect fill="#121212" x="0" y="74.7" width="12.2" height="24.65" shape-rendering="crispEdges"/><rect fill="#1e1e1e" x="12.2" y="74.7" width="12.2" height="24.65" shape-rendering="crispEdges"/><rect fill="#1e1e1e" x="24.4" y="74.7" width="24.4" height="24.65" shape-rendering="crispEdges"/><rect fill="#1e1e1e" x="48.8" y="74.7" width="427" height="24.65" shape-rendering="crispEdges"/><rect fill="#1e1e1e" x="475.8" y="74.7" width="97.6" height="24.65" shape-rendering="crispEdges"/><rect fill="#1e1e1e" x="573.4" y="74.7" width="24.4" height="24.65" shape-rendering="crispEdges"/><rect fill="#1e1e1e" x="597.8" y="74.7" width="12.2" height="24.65" shape-rendering="crispEdges"/><rect fill="#121212" x="610" y="74.7" width="24.4" height="24.65" shape-rendering="crispEdges"/><rect fill="#121212" x="0" y="99.1" width="12.2" height="24.65" shape-rendering="crispEdges"/><rect fill="#1e1e1e" x="12.2" y="99.1" width="12.2" height="24.65" shape-rendering="crispEdges"/><rect fill="#1e1e1e" x="24.4" y="99.1" width="24.4" height="24.65" shape-rendering="crispEdges"/><rect fill="#1e1e1e" x="48.8" y="99.1" width="244" height="24.65" shape-rendering="crispEdges"/><rect fill="#1e1e1e" x="292.8" y="99.1" width="280.6" height="24.65" shape-rendering="crispEdges"/><rect fill="#1e1e1e" x="573.4" y="99.1" width="24.4" height="24.65" shape-rendering="crispEdges"/><rect fill="#1e1e1e" x="597.8" y="99.1" width="12.2" height="24.65" shape-rendering="crispEdges"/><rect fill="#121212" x="610" y="99.1" width="24.4" height="24.65" shape-rendering="crispEdges"/><rect fill="#121212" x="0" y="123.5" width="12.2" height="24.65" shape-rendering="crispEdges"/><rect fill="#1e1e1e" x="12.2" y="123.5" width="12.2" height="24.65" shape-rendering="crispEdges"/><rect fill="#1e1e1e" x="24.4" y="123.5" width="24.4" height="24.65" shape-rendering="crispEdges"/><rect fill="#1e1e1e" x="48.8" y="123.5" width="524.6" height="24.65" shape-rendering="crispEdges"/><rect fill="#1e1e1e" x="573.4" y="123.5" width="24.4" height="24.65" shape-rendering="crispEdges"/><rect fill="#1e1e1e" x="597.8" y="123.5" width="12.2" height="24.65" shape-rendering="crispEdges"/><rect fill="#121212" x="610" y="123.5" width="24.4" height="24.65" shape-rendering="crispEdges"/><rect fill="#121212" x="0" y="147.9" width="12.2" height="24.65" shape-rendering="crispEdges"/><rect fill="#1e1e1e" x="12.2" y="147.9" width="12.2" height="24.65" shape-rendering="crispEdges"/><rect fill="#1e1e1e" x="24.4" y="147.9" width="24.4" height="24.65" shape-rendering="crispEdges"/><rect fill="#272727" x="48.8" y="147.9" width="524.6" height="24.65" shape-rendering="crispEdges"/><rect fill="#1e1e1e" x="573.4" y="147.9" width="24.4" height="24.65" shape-rendering="crispEdges"/><rect fill="#1e1e1e" x="597.8" y="147.9" width="12.2" height="24.65" shape-rendering="crispEdges"/><rect fill="#121212" x="610" y="147.9" width="24.4" height="24.65" shape-rendering="crispEdges"/><rect fill="#121212" x="0" y="172.3" width="12.2" height="24.65" shape-rendering="crispEdges"/><rect fill="#1e1e1e" x="12.2" y="172.3" width="12.2" height="24.65" shape-rendering="crispEdges"/><rect fill="#1e1e1e" x="24.4" y="172.3" width="24.4" height="24.65" shape-rendering="crispEdges"/><rect fill="#272727" x="48.8" y="172.3" width="146.4" height="24.65" shape-rendering="crispEdges"/><rect fill="#e0e0e0" x="195.2" y="172.3" width="231.8" height="24.65" shape-rendering="crispEdges"/><rect fill="#272727" x="427" y="172.3" width="146.4" height="24.65" shape-rendering="crispEdges"/><rect fill="#1e1e1e" x="573.4" y="172.3" width="24.4" height="24.65" shape-rendering="crispEdges"/><rect fill="#1e1e1e" x="597.8" y="172.3" width="12.2" height="24.65" shape-rendering="crispEdges"/><rect fill="#121212" x="610" y="172.3" width="24.4" height="24.65" shape-rendering="crispEdges"/><rect fill="#121212" x="0" y="196.7" width="12.2" height="24.65" shape-rendering="crispEdges"/><rect fill="#1e1e1e" x="12.2" y="196.7" width="12.2" height="24.65" shape-rendering="crispEdges"/><rect fill="#1e1e1e" x="24.4" y="196.7" width="24.4" height="24.65" shape-rendering="crispEdges"/><rect fill="#272727" x="48.8" y="196.7" width="524.6" height="24.65" shape-rendering="crispEdges"/><rect fill="#1e1e1e" x="573.4" y="196.7" width="24.4" height="24.65" shape-rendering="crispEdges"/><rect fill="#1e1e1e" x="597.8" y="196.7" width="12.2" height="24.65" shape-rendering="crispEdges"/><rect fill="#121212" x="610" y="196.7" width="24.4" height="24.65" shape-rendering="crispEdges"/><rect fill="#121212" x="0" y="221.1" width="12.2" height="24.65" shape-rendering="crispEdges"/><rect fill="#1e1e1e" x="12.2" y="221.1" width="12.2" height="24.65" shape-rendering="crispEdges"/><rect fill="#1e1e1e" x="24.4" y="221.1" width="24.4" height="24.65" shape-rendering="crispEdges"/><rect fill="#1e1e1e" x="48.8" y="221.1" width="524.6" height="24.65" shape-rendering="crispEdges"/><rect fill="#1e1e1e" x="573.4" y="221.1" width="24.4" height="24.65" shape-rendering="crispEdges"/><rect fill="#1e1e1e" x="597.8" y="221.1" width="12.2" height="24.65" shape-rendering="crispEdges"/><rect fill="#121212" x="610" y="221.1" width="24.4" height="24.65" shape-rendering="crispEdges"/><rect fill="#121212" x="0" y="245.5" width="12.2" height="24.65" shape-rendering="crispEdges"/><rect fill="#1e1e1e" x="12.2" y="245.5" width="12.2" height="24.65" shape-rendering="crispEdges"/><rect fill="#1e1e1e" x="24.4" y="245.5" width="24.4" height="24.65" shape-rendering="crispEdges"/><rect fill="#1e1e1e" x="48.8" y="245.5" width="524.6" height="24.65" shape-rendering="crispEdges"/><rect fill="#1e1e1e" x="573.4" y="245.5" width="24.4" height="24.65" shape-rendering="crispEdges"/><rect fill="#1e1e1e" x="597.8" y="245.5" width="12.2" height="24.65" shape-rendering="crispEdges"/><rect fill="#121212" x="610" y="245.5" width="24.4" height="24.65" shape-rendering="crispEdges"/><rect fill="#121212" x="0" y="269.9" width="12.2" height="24.65" shape-rendering="crispEdges"/><rect fill="#1e1e1e" x="12.2" y="269.9" width="12.2" height="24.65" shape-rendering="crispEdges"/><rect fill="#1e1e1e" x="24.4" y="269.9" width="24.4" height="24.65" shape-rendering="crispEdges"/><rect fill="#1e1e1e" x="48.8" y="269.9" width="122" height="24.65" shape-rendering="crispEdges"/><rect fill="#1e1e1e" x="170.8" y="269.9" width="268.4" height="24.65" shape-rendering="crispEdges"/><rect fill="#1e1e1e" x="439.2" y="269.9" width="134.2" height="24.65" shape-rendering="crispEdges"/><rect fill="#1e1e1e" x="573.4" y="269.9" width="24.4" height="24.65" shape-rendering="crispEdges"/><rect fill="#1e1e1e" x="597.8" y="269.9" width="12.2" height="24.65" shape-rendering="crispEdges"/><rect fill="#121212" x="610" y="269.9" width="24.4" height="24.65" shape-rendering="crispEdges"/><rect fill="#121212" x="0" y="294.3" width="12.2" height="24.65" shape-rendering="crispEdges"/><rect fill="#1e1e1e" x="12.2" y="294.3" width="12.2" height="24.65" shape-rendering="crispEdges"/><rect fill="#1e1e1e" x="24.4" y="294.3" width="24.4" height="24.65" shape-rendering="crispEdges"/><rect fill="#1e1e1e" x="48.8" y="294.3" width="524.6" height="24.65" shape-rendering="crispEdges"/><rect fill="#1e1e1e" x="573.4" y="294.3" width="24.4" height="24.65" shape-rendering="crispEdges"/><rect fill="#1e1e1e" x="597.8" y="294.3" width="12.2" height="24.65" shape-rendering="crispEdges"/><rect fill="#121212" x="610" y="294.3" width="24.4" height="24.65" shape-rendering="crispEdges"/><rect fill="#121212" x="0" y="318.7" width="12.2" height="24.65" shape-rendering="crispEdges"/><rect fill="#1e1e1e" x="12.2" y="318.7" width="12.2" height="24.65" shape-rendering="crispEdges"/><rect fill="#1e1e1e" x="24.4" y="318.7" width="24.4" height="24.65" shape-rendering="crispEdges"/><rect fill="#1e1e1e" x="48.8" y="318.7" width="524.6" height="24.65" shape-rendering="crispEdges"/><rect fill="#1e1e1e" x="573.4" y="318.7" width="24.4" height="24.65" shape-rendering="crispEdges"/><rect fill="#1e1e1e" x="597.8" y="318.7" width="12.2" height="24.65" shape-rendering="crispEdges"/><rect fill="#121212" x="610" y="318.7" width="24.4" height="24.65" shape-rendering="crispEdges"/><rect fill="#121212" x="0" y="343.1" width="12.2" height="24.65" shape-rendering="crispEdges"/><rect fill="#1e1e1e" x="12.2" y="343.1" width="12.2" height="24.65" shape-rendering="crispEdges"/><rect fill="#1e1e1e" x="24.4" y="343.1" width="24.4" height="24.65" shape-rendering="crispEdges"/><rect fill="#1e1e1e" x="48.8" y="343.1" width="524.6" height="24.65" shape-rendering="crispEdges"/><rect fill="#1e1e1e" x="573.4" y="343.1" width="24.4" height="24.65" shape-rendering="crispEdges"/><rect fill="#1e1e1e" x="597.8" y="343.1" width="12.2" height="24.65" shape-rendering="crispEdges"/><rect fill="#121212" x="610" y="343.1" width="24.4" height="24.65" shape-rendering="crispEdges"/><rect fill="#121212" x="0" y="367.5" width="12.2" height="24.65" shape-rendering="crispEdges"/><rect fill="#1e1e1e" x="12.2" y="367.5" width="12.2" height="24.65" shape-rendering="crispEdges"/><rect fill="#1e1e1e" x="24.4" y="367.5" width="24.4" height="24.65" shape-rendering="crispEdges"/><rect fill="#1e1e1e" x="48.8" y="367.5" width="219.6" height="24.65" shape-rendering="crispEdges"/><rect fill="#1e1e1e" x="268.4" y="367.5" width="73.2" height="24.65" shape-rendering="crispEdges"/><rect fill="#1e1e1e" x="341.6" y="367.5" width="231.8" height="24.65" shape-rendering="crispEdges"/><rect fill="#1e1e1e" x="573.4" y="367.5" width="24.4" height="24.65" shape-rendering="crispEdges"/><rect fill="#1e1e1e" x="597.8" y="367.5" width="12.2" height="24.65" shape-rendering="crispEdges"/><rect fill="#121212" x="610" y="367.5" width="24.4" height="24.65" shape-rendering="crispEdges"/><rect fill="#121212" x="0" y="391.9" width="12.2" height="24.65" shape-rendering="crispEdges"/><rect fill="#1e1e1e" x="12.2" y="391.9" width="12.2" height="24.65" shape-rendering="crispEdges"/><rect fill="#1e1e1e" x="24.4" y="391.9" width="24.4" height="24.65" shape-rendering="crispEdges"/><rect fill="#1e1e1e" x="48.8" y="391.9" width="524.6" height="24.65" shape-rendering="crispEdges"/><rect fill="#1e1e1e" x="573.4" y="391.9" width="24.4" height="24.65" shape-rendering="crispEdges"/><rect fill="#1e1e1e" x="597.8" y="391.9" width="12.2" height="24.65" shape-rendering="crispEdges"/><rect fill="#121212" x="610" y="391.9" width="24.4" height="24.65" shape-rendering="crispEdges"/><rect fill="#121212" x="0" y="416.3" width="12.2" height="24.65" shape-rendering="crispEdges"/><rect fill="#1e1e1e" x="12.2" y="416.3" width="12.2" height="24.65" shape-rendering="crispEdges"/><rect fill="#1e1e1e" x="24.4" y="416.3" width="573.4" height="24.65" shape-rendering="crispEdges"/><rect fill="#1e1e1e" x="597.8" y="416.3" width="12.2" height="24.65" shape-rendering="crispEdges"/><rect fill="#121212" x="610" y="416.3" width="24.4" height="24.65" shape-rendering="crispEdges"/><rect fill="#121212" x="0" y="440.7" width="12.2" height="24.65" shape-rendering="crispEdges"/><rect fill="#1e1e1e" x="12.2" y="440.7" width="12.2" height="24.65" shape-rendering="crispEdges"/><rect fill="#1e1e1e" x="24.4" y="440.7" width="573.4" height="24.65" shape-rendering="crispEdges"/><rect fill="#1e1e1e" x="597.8" y="440.7" width="12.2" height="24.65" shape-rendering="crispEdges"/><rect fill="#121212" x="610" y="440.7" width="24.4" height="24.65" shape-rendering="crispEdges"/><rect fill="#121212" x="0" y="465.1" width="634.4" height="24.65" shape-rendering="crispEdges"/>
    <g class="terminal-2200261457-matrix">
    <text class="terminal-2200261457-r2" x="12.2" y="20" textLength="12.2" clip-path="url(#terminal-2200261457-line-0)">█</text><text class="terminal-2200261457-r2" x="24.4" y="20" textLength="573.4" clip-path="url(#terminal-2200261457-line-0)">▀▀▀▀▀▀▀▀▀▀▀▀▀▀▀▀▀▀▀▀▀▀▀▀▀▀▀▀▀▀▀▀▀▀▀▀▀▀▀▀▀▀▀▀▀▀▀</text><text class="terminal-2200261457-r2" x="597.8" y="20" textLength="12.2" clip-path="url(#terminal-2200261457-line-0)">█</text><text class="terminal-2200261457-r3" x="634.4" y="20" textLength="12.2" clip-path="url(#terminal-2200261457-line-0)">
</text><text class="terminal-2200261457-r2" x="12.2" y="44.4" textLength="12.2" clip-path="url(#terminal-2200261457-line-1)">█</text><text class="terminal-2200261457-r2" x="597.8" y="44.4" textLength="12.2" clip-path="url(#terminal-2200261457-line-1)">█</text><text class="terminal-2200261457-r3" x="634.4" y="44.4" textLength="12.2" clip-path="url(#terminal-2200261457-line-1)">
</text><text class="terminal-2200261457-r2" x="12.2" y="68.8" textLength="12.2" clip-path="url(#terminal-2200261457-line-2)">█</text><text class="terminal-2200261457-r1" x="48.8" y="68.8" textLength="451.4" clip-path="url(#terminal-2200261457-line-2)">Finish&#160;Roleplay&#160;drafts&#160;before&#160;leaving</text><text class="terminal-2200261457-r2" x="597.8" y="68.8" textLength="12.2" clip-path="url(#terminal-2200261457-line-2)">█</text><text class="terminal-2200261457-r3" x="634.4" y="68.8" textLength="12.2" clip-path="url(#terminal-2200261457-line-2)">
</text><text class="terminal-2200261457-r2" x="12.2" y="93.2" textLength="12.2" clip-path="url(#terminal-2200261457-line-3)">█</text><text class="terminal-2200261457-r1" x="48.8" y="93.2" textLength="427" clip-path="url(#terminal-2200261457-line-3)">Affected:&#160;character&#160;form,&#160;character</text><text class="terminal-2200261457-r2" x="597.8" y="93.2" textLength="12.2" clip-path="url(#terminal-2200261457-line-3)">█</text><text class="terminal-2200261457-r3" x="634.4" y="93.2" textLength="12.2" clip-path="url(#terminal-2200261457-line-3)">
</text><text class="terminal-2200261457-r2" x="12.2" y="117.6" textLength="12.2" clip-path="url(#terminal-2200261457-line-4)">█</text><text class="terminal-2200261457-r1" x="48.8" y="117.6" textLength="244" clip-path="url(#terminal-2200261457-line-4)">visuals,&#160;attachments</text><text class="terminal-2200261457-r2" x="597.8" y="117.6" textLength="12.2" clip-path="url(#terminal-2200261457-line-4)">█</text><text class="terminal-2200261457-r3" x="634.4" y="117.6" textLength="12.2" clip-path="url(#terminal-2200261457-line-4)">
</text><text class="terminal-2200261457-r2" x="12.2" y="142" textLength="12.2" clip-path="url(#terminal-2200261457-line-5)">█</text><text class="terminal-2200261457-r2" x="597.8" y="142" textLength="12.2" clip-path="url(#terminal-2200261457-line-5)">█</text><text class="terminal-2200261457-r3" x="634.4" y="142" textLength="12.2" clip-path="url(#terminal-2200261457-line-5)">
</text><text class="terminal-2200261457-r2" x="12.2" y="166.4" textLength="12.2" clip-path="url(#terminal-2200261457-line-6)">█</text><text class="terminal-2200261457-r4" x="48.8" y="166.4" textLength="524.6" clip-path="url(#terminal-2200261457-line-6)">▔▔▔▔▔▔▔▔▔▔▔▔▔▔▔▔▔▔▔▔▔▔▔▔▔▔▔▔▔▔▔▔▔▔▔▔▔▔▔▔▔▔▔</text><text class="terminal-2200261457-r2" x="597.8" y="166.4" textLength="12.2" clip-path="url(#terminal-2200261457-line-6)">█</text><text class="terminal-2200261457-r3" x="634.4" y="166.4" textLength="12.2" clip-path="url(#terminal-2200261457-line-6)">
</text><text class="terminal-2200261457-r2" x="12.2" y="190.8" textLength="12.2" clip-path="url(#terminal-2200261457-line-7)">█</text><text class="terminal-2200261457-r5" x="195.2" y="190.8" textLength="231.8" clip-path="url(#terminal-2200261457-line-7)">&#160;Save&#160;and&#160;continue&#160;</text><text class="terminal-2200261457-r2" x="597.8" y="190.8" textLength="12.2" clip-path="url(#terminal-2200261457-line-7)">█</text><text class="terminal-2200261457-r3" x="634.4" y="190.8" textLength="12.2" clip-path="url(#terminal-2200261457-line-7)">
</text><text class="terminal-2200261457-r2" x="12.2" y="215.2" textLength="12.2" clip-path="url(#terminal-2200261457-line-8)">█</text><text class="terminal-2200261457-r6" x="48.8" y="215.2" textLength="524.6" clip-path="url(#terminal-2200261457-line-8)">▁▁▁▁▁▁▁▁▁▁▁▁▁▁▁▁▁▁▁▁▁▁▁▁▁▁▁▁▁▁▁▁▁▁▁▁▁▁▁▁▁▁▁</text><text class="terminal-2200261457-r2" x="597.8" y="215.2" textLength="12.2" clip-path="url(#terminal-2200261457-line-8)">█</text><text class="terminal-2200261457-r3" x="634.4" y="215.2" textLength="12.2" clip-path="url(#terminal-2200261457-line-8)">
</text><text class="terminal-2200261457-r2" x="12.2" y="239.6" textLength="12.2" clip-path="url(#terminal-2200261457-line-9)">█</text><text class="terminal-2200261457-r2" x="597.8" y="239.6" textLength="12.2" clip-path="url(#terminal-2200261457-line-9)">█</text><text class="terminal-2200261457-r3" x="634.4" y="239.6" textLength="12.2" clip-path="url(#terminal-2200261457-line-9)">
</text><text class="terminal-2200261457-r2" x="12.2" y="264" textLength="12.2" clip-path="url(#terminal-2200261457-line-10)">█</text><text class="terminal-2200261457-r4" x="48.8" y="264" textLength="524.6" clip-path="url(#terminal-2200261457-line-10)">▔▔▔▔▔▔▔▔▔▔▔▔▔▔▔▔▔▔▔▔▔▔▔▔▔▔▔▔▔▔▔▔▔▔▔▔▔▔▔▔▔▔▔</text><text class="terminal-2200261457-r2" x="597.8" y="264" textLength="12.2" clip-path="url(#terminal-2200261457-line-10)">█</text><text class="terminal-2200261457-r3" x="634.4" y="264" textLength="12.2" clip-path="url(#terminal-2200261457-line-10)">
</text><text class="terminal-2200261457-r2" x="12.2" y="288.4" textLength="12.2" clip-path="url(#terminal-2200261457-line-11)">█</text><text class="terminal-2200261457-r7" x="170.8" y="288.4" textLength="268.4" clip-path="url(#terminal-2200261457-line-11)">&#160;Discard&#160;and&#160;continue&#160;</text><text class="terminal-2200261457-r2" x="597.8" y="288.4" textLength="12.2" clip-path="url(#terminal-2200261457-line-11)">█</text><text class="terminal-2200261457-r3" x="634.4" y="288.4" textLength="12.2" clip-path="url(#terminal-2200261457-line-11)">
</text><text class="terminal-2200261457-r2" x="12.2" y="312.8" textLength="12.2" clip-path="url(#terminal-2200261457-line-12)">█</text><text class="terminal-2200261457-r6" x="48.8" y="312.8" textLength="524.6" clip-path="url(#terminal-2200261457-line-12)">▁▁▁▁▁▁▁▁▁▁▁▁▁▁▁▁▁▁▁▁▁▁▁▁▁▁▁▁▁▁▁▁▁▁▁▁▁▁▁▁▁▁▁</text><text class="terminal-2200261457-r2" x="597.8" y="312.8" textLength="12.2" clip-path="url(#terminal-2200261457-line-12)">█</text><text class="terminal-2200261457-r3" x="634.4" y="312.8" textLength="12.2" clip-path="url(#terminal-2200261457-line-12)">
</text><text class="terminal-2200261457-r2" x="12.2" y="337.2" textLength="12.2" clip-path="url(#terminal-2200261457-line-13)">█</text><text class="terminal-2200261457-r2" x="597.8" y="337.2" textLength="12.2" clip-path="url(#terminal-2200261457-line-13)">█</text><text class="terminal-2200261457-r3" x="634.4" y="337.2" textLength="12.2" clip-path="url(#terminal-2200261457-line-13)">
</text><text class="terminal-2200261457-r2" x="12.2" y="361.6" textLength="12.2" clip-path="url(#terminal-2200261457-line-14)">█</text><text class="terminal-2200261457-r4" x="48.8" y="361.6" textLength="524.6" clip-path="url(#terminal-2200261457-line-14)">▔▔▔▔▔▔▔▔▔▔▔▔▔▔▔▔▔▔▔▔▔▔▔▔▔▔▔▔▔▔▔▔▔▔▔▔▔▔▔▔▔▔▔</text><text class="terminal-2200261457-r2" x="597.8" y="361.6" textLength="12.2" clip-path="url(#terminal-2200261457-line-14)">█</text><text class="terminal-2200261457-r3" x="634.4" y="361.6" textLength="12.2" clip-path="url(#terminal-2200261457-line-14)">
</text><text class="terminal-2200261457-r2" x="12.2" y="386" textLength="12.2" clip-path="url(#terminal-2200261457-line-15)">█</text><text class="terminal-2200261457-r7" x="268.4" y="386" textLength="73.2" clip-path="url(#terminal-2200261457-line-15)">&#160;Stay&#160;</text><text class="terminal-2200261457-r2" x="597.8" y="386" textLength="12.2" clip-path="url(#terminal-2200261457-line-15)">█</text><text class="terminal-2200261457-r3" x="634.4" y="386" textLength="12.2" clip-path="url(#terminal-2200261457-line-15)">
</text><text class="terminal-2200261457-r2" x="12.2" y="410.4" textLength="12.2" clip-path="url(#terminal-2200261457-line-16)">█</text><text class="terminal-2200261457-r6" x="48.8" y="410.4" textLength="524.6" clip-path="url(#terminal-2200261457-line-16)">▁▁▁▁▁▁▁▁▁▁▁▁▁▁▁▁▁▁▁▁▁▁▁▁▁▁▁▁▁▁▁▁▁▁▁▁▁▁▁▁▁▁▁</text><text class="terminal-2200261457-r2" x="597.8" y="410.4" textLength="12.2" clip-path="url(#terminal-2200261457-line-16)">█</text><text class="terminal-2200261457-r3" x="634.4" y="410.4" textLength="12.2" clip-path="url(#terminal-2200261457-line-16)">
</text><text class="terminal-2200261457-r2" x="12.2" y="434.8" textLength="12.2" clip-path="url(#terminal-2200261457-line-17)">█</text><text class="terminal-2200261457-r2" x="597.8" y="434.8" textLength="12.2" clip-path="url(#terminal-2200261457-line-17)">█</text><text class="terminal-2200261457-r3" x="634.4" y="434.8" textLength="12.2" clip-path="url(#terminal-2200261457-line-17)">
</text><text class="terminal-2200261457-r2" x="12.2" y="459.2" textLength="12.2" clip-path="url(#terminal-2200261457-line-18)">█</text><text class="terminal-2200261457-r2" x="24.4" y="459.2" textLength="573.4" clip-path="url(#terminal-2200261457-line-18)">▄▄▄▄▄▄▄▄▄▄▄▄▄▄▄▄▄▄▄▄▄▄▄▄▄▄▄▄▄▄▄▄▄▄▄▄▄▄▄▄▄▄▄▄▄▄▄</text><text class="terminal-2200261457-r2" x="597.8" y="459.2" textLength="12.2" clip-path="url(#terminal-2200261457-line-18)">█</text><text class="terminal-2200261457-r3" x="634.4" y="459.2" textLength="12.2" clip-path="url(#terminal-2200261457-line-18)">
</text>
    </g>
    </g>
</svg>
